<svg xmlns="http://www.w3.org/2000/svg" width="90.425" height="100.116" viewBox="0 0 90.425 100.116"><defs><style>.a{fill:#57a4ff;}.b{fill:#004fac;}</style></defs><g transform="translate(0.007 0)"><path class="a" d="M209.666,252.844A4.844,4.844,0,1,1,204.821,248,4.845,4.845,0,0,1,209.666,252.844Zm0,0" transform="translate(-159.618 -197.942)"/><g transform="translate(-0.007 0)"><path class="b" d="M14.068,87.681a44.89,44.89,0,0,0,31.1,12.434q.6,0,1.2-.016a45.2,45.2,0,0,0,32.7-75.145l7.1-6.8a1.615,1.615,0,1,0-2.234-2.329l-7.1,6.8c-.162-.161-.322-.337-.5-.5A44.981,44.981,0,0,0,46.81,9.729c0-.014.008-.026.008-.04V3.229h4.844a1.615,1.615,0,1,0,0-3.23H38.744a1.615,1.615,0,0,0,0,3.23h4.844v6.5a45.206,45.206,0,0,0-29.52,77.954ZM44.12,12.932c.373-.014.741-.014,1.113-.014a41.778,41.778,0,1,1-1.113.014Zm0,0" transform="translate(0.007 0)"/><path class="b" d="M109.618,161.521a6.381,6.381,0,0,0-.807,3.051,6.5,6.5,0,1,0,2.989-5.43L90.515,137.857a1.615,1.615,0,0,0-2.283,2.283Zm8.881,3.051a3.23,3.23,0,1,1-3.23-3.23A3.23,3.23,0,0,1,118.5,164.571Zm0,0" transform="translate(-70.059 -109.669)"/></g></g></svg>