<svg xmlns="http://www.w3.org/2000/svg" xmlns:xlink="http://www.w3.org/1999/xlink" width="588.943" height="456.343" viewBox="0 0 588.943 456.343"><defs><style>.a,.f{fill:#6c63ff;}.a,.d,.h{opacity:0.1;}.b{fill:#eec5cd;}.c{fill:#d48a9b;}.e,.g{fill:#fff;}.g,.z{opacity:0.2;}.i{fill:url(#a);}.j{fill:#575989;}.k{fill:#ffd7e3;}.l{fill:#3f2b3b;}.m{fill:#c77486;}.n{opacity:0.05;}.o{fill:#d4dfec;}.p{fill:#dce6f2;}.q{fill:#feffff;}.r{fill:#464a5f;}.s{fill:#939498;}.t{fill:#4b4770;}.u{fill:#e8eaf2;}.v{fill:#f1cec8;}.w{fill:#42312e;}.x{fill:#f6e2df;}.y{fill:#f2dcdc;}.aa{fill:#9c9ca1;}</style><linearGradient id="a" x1="0.667" y1="1" x2="0.667" gradientUnits="objectBoundingBox"><stop offset="0" stop-color="gray" stop-opacity="0.251"/><stop offset="0.54" stop-color="gray" stop-opacity="0.122"/><stop offset="1" stop-color="gray" stop-opacity="0.102"/></linearGradient></defs><g transform="translate(0 0.005)"><ellipse class="a" cx="73.336" cy="8.115" rx="73.336" ry="8.115" transform="translate(236.036 392.409)"/><ellipse class="a" cx="19.421" cy="2.151" rx="19.421" ry="2.151" transform="translate(217.272 439.681)"/><ellipse class="a" cx="19.421" cy="2.151" rx="19.421" ry="2.151" transform="translate(405.975 452.036)"/><ellipse class="a" cx="19.421" cy="2.151" rx="19.421" ry="2.151" transform="translate(530.653 404.86)"/><ellipse class="a" cx="73.336" cy="16.77" rx="73.336" ry="16.77" transform="translate(6.913 411.757)"/><path class="a" d="M134.93,350.12h51.629v70.387H138.7c-.124.725-.247,1.449-.382,2.173H186.56v56.751a1.691,1.691,0,0,1-.236-.09c-1.37-.562-2.724-1.123-4.06-1.713l-.871-.4q-2.056-.96-4.06-2.039c-.472-.247-.944-.505-1.41-.769A84.709,84.709,0,0,1,155.609,458.6c-.174-.168-.337-.348-.5-.517-.82-.893-1.634-1.8-2.415-2.724l-.871-1.039c-.927-1.123-1.82-2.3-2.685-3.476-.129-.174-.253-.354-.382-.522a75,75,0,0,1-8.75-15.821c-.073-.168-.14-.348-.2-.517q-1.061-2.673-1.893-5.431c-.23-.769-.461-1.544-.651-2.325-.073-.23-.129-.466-.191-.691-2.864-11.272-3.19-22.987-3.19-34.64v-4.072q0-7.071.135-14.181c.028-1.224.051-2.449.079-3.679.073-3.123.168-6.251.3-9.373.034-.865.073-1.735.118-2.595,0-.5.045-1,.079-1.494C134.7,353.709,134.807,351.917,134.93,350.12Z" transform="translate(-101.188 -178.049)"/><path class="a" d="M205.572,182.647H177.25a214.472,214.472,0,0,1,15.068-20.74c4.206-5.167,8.632-10.21,13.254-15.057Z" transform="translate(-120.201 -88.939)"/><path class="a" d="M187.489,214.442v74.015H136a6.374,6.374,0,0,1,.056-.651c.045-.562.09-1.163.14-1.747.051-.68.118-1.365.18-2.056s.135-1.483.213-2.218.152-1.483.236-2.246.163-1.477.253-2.207.174-1.477.27-2.207c.079-.612.157-1.219.241-1.831q.174-1.292.371-2.578a2.846,2.846,0,0,1,.056-.382,175.6,175.6,0,0,1,3.791-18.578,137.126,137.126,0,0,1,6.386-18.831,140.884,140.884,0,0,1,9.6-18.505Z" transform="translate(-102.118 -118.56)"/><path class="a" d="M249.631,215.8v70.387H359.91V215.8Zm0,72.561v60.475c.629.129,1.252.258,1.876.365.842.163,1.685.309,2.533.438.163,0,.331.051.5.067.337.056.68.1,1.017.146.848.118,1.685.213,2.555.292l1.213.107.983.073h0c.534.039,1.061.073,1.589.09a8.266,8.266,0,0,1,.983.039h3.606c.438,0,.876,0,1.309-.039h0a7.047,7.047,0,0,0,.91-.039,1.993,1.993,0,0,0,.258,0,5.584,5.584,0,0,0,.753-.034h.174l1.685-.135c.562-.051,1.123-.112,1.685-.174l1.157-.14a101.289,101.289,0,0,0,13.967-2.971c10.289-2.87,20.33-6.885,30.636-9.823,13.372-3.825,28.064-5.672,40.891-1.073V288.362ZM359.91,137.439V43.733a141.633,141.633,0,0,0-35.831,4.2c-27.929,7.015-53.005,22.234-74.459,41.672v47.833h5.532v2.173H249.62v74.015H359.91V139.612h-82v-2.173ZM501.6,105.786a45.727,45.727,0,0,1-19.993-5.813c-11.878-6.459-21.386-16.438-31.973-24.857a146.723,146.723,0,0,0-77.368-30.748v93.071H529.692l.388-.416Zm14.344-2.567,15.208,16.691V98.85c-5.105.629-9.564,2.145-15.2,4.369Zm15.208,260.589V288.362H498.736c-.084-.32-.174-.646-.275-.972.1.326.18.651.27.972H372.266v54.566c1.2.893,2.387,1.831,3.561,2.78h0c1.269,1.033,2.522,2.089,3.78,3.145l1.264,1.045c.607.505,1.219,1,1.831,1.5q1.836,1.483,3.7,2.932c.618.489,1.247.966,1.87,1.443a255.61,255.61,0,0,0,31.361,20.51q3.678,2.044,7.424,3.971,2.494,1.281,5.015,2.516,3.785,1.848,7.627,3.577h0A280.272,280.272,0,0,0,514,407.986q8.542,1.258,17.152,1.983V363.809h0Zm-158.886-224.2v74.015h158.9V139.612Zm0,76.189v70.387h158.9V215.8ZM543.5,98.749v23.543l19.409-21.3Q553.263,99.417,543.5,98.749Zm0,117.052v70.387H698.047V215.8ZM697.5,369.4l.562-81.041H543.5V410.794a277.388,277.388,0,0,0,29.867-.359h.174q7.11-.455,14.181-1.3h.107a261.029,261.029,0,0,0,72.858-19.443m67.175-162.273q-.876-2.055-1.8-4.077c-1.123-2.522-2.364-5.015-3.617-7.486H710.38v70.337h30.484c-.023-19.909-5.066-40.29-13-58.824Zm-17.477,61v69.663a99.743,99.743,0,0,0,21.066-28.412,97.892,97.892,0,0,0,9.4-41.3Zm0-93.071v18.337h10.929a198.753,198.753,0,0,0-10.923-18.387ZM605.572,112.559c-.8-.309-1.612-.618-2.421-.915a219.648,219.648,0,0,0-26.1-7.863l-29.7,32.574h0l-.562.623.382.416h105.7a226.049,226.049,0,0,0-47.288-24.835Zm50.4,27.053H545.664L543.5,141.6v72.027h154.54v-34.9a220.031,220.031,0,0,0-42.065-39.111Z" transform="translate(-151.927 -43.73)"/><path class="a" d="M187.489,280.922V317.6H136a6.373,6.373,0,0,1,.056-.651c.045-.562.09-1.163.14-1.747.051-.68.118-1.365.18-2.056s.135-1.483.213-2.218.152-1.483.236-2.246.163-1.477.253-2.207.174-1.477.27-2.207c.079-.612.157-1.219.241-1.831q.174-1.292.371-2.578a2.847,2.847,0,0,1,.056-.382,175.6,175.6,0,0,1,3.791-18.578Z" transform="translate(-102.118 -147.704)"/><path class="a" d="M134.93,350.12h51.629v70.387H138.7c-.124.725-.247,1.449-.382,2.173H186.56v56.751a1.691,1.691,0,0,1-.236-.09c-1.37-.562-2.724-1.123-4.06-1.713l-.871-.4q-2.056-.96-4.06-2.039c-.472-.247-.944-.505-1.41-.769A84.709,84.709,0,0,1,155.609,458.6c-.174-.168-.337-.348-.5-.517-.82-.893-1.634-1.8-2.415-2.724l-.871-1.039c-.927-1.123-1.82-2.3-2.685-3.476-.129-.174-.253-.354-.382-.522a75,75,0,0,1-8.75-15.821c-.073-.168-.14-.348-.2-.517q-1.061-2.673-1.893-5.431c-.23-.769-.461-1.544-.651-2.325-.073-.23-.129-.466-.191-.691-2.864-11.272-3.19-22.987-3.19-34.64v-4.072q0-7.071.135-14.181c.028-1.224.051-2.449.079-3.679.073-3.123.168-6.251.3-9.373.034-.865.073-1.735.118-2.595,0-.5.045-1,.079-1.494C134.7,353.709,134.807,351.917,134.93,350.12Z" transform="translate(-101.188 -178.049)"/><path class="a" d="M212.794,172.841v63.418H173.97V172.841H179.5V151.37H202.23v21.471Z" transform="translate(-76.266 -66.361)"/><rect class="a" width="38.824" height="70.387" transform="translate(97.71 172.071)"/><path class="a" d="M249.64,479.32h38.824v58.526a100.266,100.266,0,0,1-13.967,2.965c-.388.056-.769.1-1.157.146-.562.062-1.123.124-1.685.174l-1.685.135h-.18c-.242,0-.494.028-.747.034a2.028,2.028,0,0,1-.258,0c-.309,0-.612.034-.915.039h0c-.432,0-.865.028-1.309.039h-3.606a8.849,8.849,0,0,1-.983-.039c-.528,0-1.056-.051-1.589-.09h0l-.977-.073-1.219-.107c-.854-.079-1.685-.18-2.555-.292-.331-.045-.68-.09-1.017-.146a3.5,3.5,0,0,1-.494-.067c-.848-.129-1.685-.275-2.533-.438-.629-.107-1.252-.236-1.881-.365Z" transform="translate(-151.936 -234.688)"/><rect class="a" width="32.018" height="70.904" transform="translate(347.224 98.994)"/><path class="a" d="M551.229,306.39v70.387H392.32V346.422h84.641v17.9h42.25V306.39Z" transform="translate(-171.987 -134.319)"/><path class="a" d="M627.4,554.031H626.9V600.2q-8.61-.724-17.152-1.982a280.133,280.133,0,0,1-74.318-21.667q-10.244-4.616-20.067-10.064A256.045,256.045,0,0,1,484,545.978q-3.746-2.87-7.4-5.869c-1.685-1.393-3.37-2.808-5.055-4.2q-1.752-1.424-3.561-2.808V478.562H594.46c-.09-.32-.174-.646-.264-.972.1.326.185.651.27.972H626.9V554Z" transform="translate(-247.657 -233.93)"/><path class="a" d="M883.323,190.455H862.47v-6.509h9.345V164.66c.809.3,1.617.607,2.421.915v18.37h9.087Z" transform="translate(-420.591 -96.746)"/><path class="a" d="M894.322,288.475H772.89v-70.9h5.386v52.41h24.6V238.963H823.2v-24.5h20.853v24.5h20.319v31.018h29.951Z" transform="translate(-381.321 -118.578)"/><path class="a" d="M772.89,350.12v70.387H894.322V350.12ZM927.272,503.374l.169-55.712H894.306V422.681H772.89V545.113a277.413,277.413,0,0,0,29.867-.36h.174q7.11-.455,14.181-1.3h.107a261.029,261.029,0,0,0,72.858-19.443" transform="translate(-381.321 -178.049)"/><path class="a" d="M1072.194,479.32h28.328a97.9,97.9,0,0,1-9.4,41.3,99.726,99.726,0,0,1-21.061,28.412V504.273h2.134Z" transform="translate(-511.595 -234.688)"/><path class="a" d="M1102.2,429.534H1073.86V370.71H1089.2C1097.133,389.243,1102.177,409.624,1102.2,429.534Z" transform="translate(-513.261 -187.075)"/><rect class="a" width="17.152" height="22.229" transform="translate(362.09 118.701)"/><rect class="a" width="17.152" height="5.116" transform="translate(362.09 164.781)"/><rect class="a" width="17.152" height="14.933" transform="translate(362.09 172.071)"/><rect class="a" width="17.152" height="22.229" transform="translate(362.09 210.856)"/><rect class="a" width="17.152" height="22.229" transform="translate(362.09 256.937)"/><path class="a" d="M737.552,600.326l.506.034h-.506v5.161H720.4V583.27h17.152Z" transform="translate(-358.31 -280.258)"/><path class="a" d="M737.552,665.3v17.169q-8.61-.725-17.152-1.983V665.323Z" transform="translate(-358.31 -316.219)"/><rect class="a" width="73.504" height="1.634" transform="translate(220.333 240.824)"/><rect class="a" width="73.504" height="6.256" transform="translate(220.333 244.632)"/><rect class="a" width="73.504" height="10.064" transform="translate(220.333 271.404)"/><path class="a" d="M544.274,581.44V591.5H486.781q-3.746-2.864-7.4-5.875c-1.685-1.387-3.37-2.808-5.055-4.19Z" transform="translate(-250.437 -279.456)"/><path class="a" d="M578.472,635.88v10.07h-6.065q-10.244-4.616-20.066-10.07Z" transform="translate(-284.635 -303.322)"/><rect class="a" width="14.467" height="14.467" transform="translate(421.442 178.895)"/><rect class="a" width="14.467" height="14.467" transform="translate(108.133 111.473)"/><rect class="a" width="14.467" height="14.467" transform="translate(108.133 145.08)"/><rect class="a" width="14.467" height="14.467" transform="translate(108.133 178.692)"/><rect class="a" width="14.467" height="14.467" transform="translate(108.133 212.305)"/><rect class="a" width="14.467" height="14.467" transform="translate(108.133 245.918)"/><rect class="a" width="14.467" height="14.467" transform="translate(108.133 279.53)"/><rect class="a" width="14.467" height="14.467" transform="translate(476.682 178.895)"/><rect class="a" width="14.467" height="14.467" transform="translate(421.442 214.585)"/><rect class="a" width="14.467" height="14.467" transform="translate(476.682 214.585)"/><rect class="a" width="14.467" height="14.467" transform="translate(421.442 250.276)"/><rect class="a" width="14.467" height="14.467" transform="translate(476.682 250.276)"/><rect class="a" width="14.467" height="14.467" transform="translate(421.442 285.967)"/><rect class="a" width="14.467" height="14.467" transform="translate(476.682 285.967)"/><rect class="a" width="14.467" height="14.467" transform="translate(421.442 321.657)"/><rect class="a" width="14.467" height="14.467" transform="translate(476.682 321.657)"/><path class="a" d="M750.41,645.619V636.29h14.467v8Z" transform="translate(-328.968 -278.942)"/><path class="a" d="M139.51,314v8.278h49.518V314Zm4.931,7.762h-4.06v-7.2h4.06Zm4.931,0h-4.06v-7.2h4.06Zm4.92,0h-4.06v-7.2h4.06Zm4.931,0h-4.06v-7.2h4.06Zm4.925,0h-4.06v-7.2h4.06Zm4.931,0h-4.06v-7.2h4.06Zm4.931,0h-4.06v-7.2h4.06Zm4.925,0h-4.06v-7.2h4.06Zm4.925,0H179.8v-7.2h4.06Zm4.925,0h-4.072v-7.2h4.06Z" transform="translate(-103.656 -162.215)"/><path class="a" d="M139.51,356.93v8.278h49.518V356.93Zm4.931,7.756h-4.06v-7.234h4.06Zm4.931,0h-4.06v-7.234h4.06Zm4.92,0h-4.06v-7.234h4.06Zm4.931,0h-4.06v-7.234h4.06Zm4.925,0h-4.06v-7.234h4.06Zm4.931,0h-4.06v-7.234h4.06Zm4.931,0h-4.06v-7.234h4.06Zm4.925,0h-4.06v-7.234h4.06Zm4.925,0H179.8v-7.234h4.06Zm4.925,0h-4.072v-7.234h4.06Z" transform="translate(-103.656 -181.034)"/><path class="a" d="M139.51,399.84v8.273h49.518V399.84Zm4.931,7.75h-4.06v-7.234h4.06Zm4.931,0h-4.06v-7.234h4.06Zm4.92,0h-4.06v-7.234h4.06Zm4.931,0h-4.06v-7.234h4.06Zm4.925,0h-4.06v-7.234h4.06Zm4.931,0h-4.06v-7.234h4.06Zm4.931,0h-4.06v-7.234h4.06Zm4.925,0h-4.06v-7.234h4.06Zm4.925,0H179.8v-7.234h4.06Zm4.925,0h-4.072v-7.234h4.06Z" transform="translate(-103.656 -199.846)"/><path class="a" d="M139.51,442.74v8.273h49.518V442.74Zm4.931,7.756h-4.06v-7.239h4.06Zm4.931,0h-4.06v-7.239h4.06Zm4.92,0h-4.06v-7.239h4.06Zm4.931,0h-4.06v-7.239h4.06Zm4.925,0h-4.06v-7.239h4.06Zm4.931,0h-4.06v-7.239h4.06Zm4.931,0h-4.06v-7.239h4.06Zm4.925,0h-4.06v-7.239h4.06Zm4.925,0H179.8v-7.239h4.06Zm4.925,0h-4.072v-7.239h4.06Z" transform="translate(-103.656 -218.652)"/><path class="a" d="M139.89,485.64c.2.781.421,1.556.657,2.325v-1.8h4.061V493.4H142.44c.062.168.129.348.2.517h46.558V485.64Zm9.649,7.756h-4.06v-7.234h4.06Zm4.92,0H150.4v-7.234h4.06Zm4.931,0h-4.06v-7.234h4.06Zm4.925,0h-4.06v-7.234h4.06Zm4.931,0h-4.06v-7.234h4.06Zm4.931,0h-4.06v-7.234h4.06Zm4.925,0h-4.06v-7.234h4.06Zm4.925,0h-4.06v-7.234h4.06Zm4.925,0h-4.072v-7.234h4.06Z" transform="translate(-103.823 -237.459)"/><path class="a" d="M160.36,528.55c.129.163.253.343.382.517h2.69v3.476l.87,1.039v-4.493h4.06v7.239h-1.646c.163.168.32.348.5.517h30.951v-8.3Zm12.917,7.756h-4.06v-7.239h4.06Zm4.931,0h-4.06v-7.239h4.06Zm4.931,0h-4.06v-7.239h4.06Zm4.925,0H184v-7.239h4.06Zm4.925,0h-4.061v-7.239h4.061Zm4.925,0h-4.06v-7.239h4.06Z" transform="translate(-112.797 -256.27)"/><path class="a" d="M208.73,571.45c.466.264.938.522,1.415.769v-.253h4.06v2.291l.865.4v-2.69h4.06v4.4a1.773,1.773,0,0,0,.241.09v-5.01Z" transform="translate(-134.001 -275.077)"/><path class="a" d="M566.834,286.779ZM535.49,436.949Zm-32.7-76.38c.1.326.18.651.27.972h0c-.1-.348-.168-.674-.27-1Zm64.024-73.763ZM259.49,210.59v2.173h22.751V210.59Zm276,226.331Zm-32.7-76.38c.1.326.18.651.27.972h0C502.956,361.193,502.888,360.867,502.787,360.541Zm64.024-73.763ZM535.49,436.949Zm-32.7-76.38c.1.326.18.651.27.972h0c-.1-.348-.168-.674-.27-1Z" transform="translate(-156.254 -116.881)"/><path class="b" d="M4.8,385.184l-3.841.2L4.8,410.053l9.368,26.02,2.763-6.812,361.534-27.7-.067-11.053-54.46-19.949Z" transform="translate(-0.421 -162.45)"/><path class="c" d="M567.133,500.6l-3.926-1.8-19.527-8.98-.27-4.044,18.578,8.284,3.8,1.69Z" transform="translate(-238.223 -212.956)"/><path class="c" d="M96.018,527.267l-1.078,5.942-2.847-3.847L87.9,523.7l-2.943-3.976,1.617-3.235L89,519.253l1.376,1.573,2.37,2.707.286.326Z" transform="translate(-37.245 -226.424)"/><path class="c" d="M627.466,591.376c-.449,2.64-1.78,2.3-2.993,1.314a7.3,7.3,0,0,1-2.555-4.723L611.449,510.6l-.382-2.808-.449-3.342-.382-2.769-.758-5.616L609,492.531l5.386-1.881.668,5.055L616.7,508.06l.365,2.758.393,2.937.073.562.382,2.808.112.865,9.446,70.926A8.59,8.59,0,0,1,627.466,591.376Z" transform="translate(-309.474 -239.655)"/><path class="d" d="M581.634,507.063l-3.926-1.8-1.005-3.926-.213-.814,3.8,1.69Z" transform="translate(-252.724 -219.423)"/><path class="c" d="M679.87,613.3c-.27,2.331-1.528,2.612-2.808,2.246a5.369,5.369,0,0,1-3.611-3.875L650.6,522.748l-1.23-4.762-6.863-26.739-.876-3.37,4.588-5.4,2.179,8.4,31.271,120.062A6.452,6.452,0,0,1,679.87,613.3Z" transform="translate(-323.778 -236.074)"/><path class="d" d="M543.505,484.114l-2-1.994-.927-.932-3.538-3.544-.376-2.8-.455-3.342,4.465,4.375,1.983,1.949.393,2.937.073.55Z" transform="translate(-235.066 -206.701)"/><path class="c" d="M545.244,478.976h-5.661l-.185-.185-6.374-6.374-.927-.932-5.532-5.538-11.109-11.109-2.286-2.286,3.768-1.342,3.37,3.308,5.42,5.318,6.464,6.335,10.014,9.817Z" transform="translate(-224.966 -197.806)"/><path class="c" d="M150.9,519.89l-1.247,5.116-4.611,18.859L144,548.122l-19.443,79.542a7.756,7.756,0,0,1-1.55,3.162c-1.87,2.246-3.044,1.179-3.707-.18a5.858,5.858,0,0,1-.365-3.971l24.953-101.3,1.348-5.487Z" transform="translate(-94.552 -252.474)"/><path class="c" d="M125.813,475.69l-3.594,3.622-14.271,14.4-.988,1-1.983,2-5.515,5.554-.977.988-1.96,1.971-.41.421-1.039,1.045L92.65,504l1.1-1.056,3.8-3.7,1.943-1.887.972-.938,5.554-5.408,1.966-1.909.983-.955,8.778-8.537,4.032-3.92Z" transform="translate(-40.616 -208.538)"/><path class="d" d="M114.277,497.87l-.174.955-.837,4.611-.988,1-7.5,7.554.831-4.908.163-.938,7.52-7.318Z" transform="translate(-45.934 -218.261)"/><path class="d" d="M98.6,529.61l2.988,3.409-1.078,5.942-2.847-3.847.674-3.954Z" transform="translate(-42.813 -232.175)"/><path class="d" d="M109.036,502.97l-.668,3.7-.365,2-5.515,5.554-.977.988-1.96,1.971.343-1.971.674-4.01,1.943-1.887.972-.938Z" transform="translate(-43.641 -220.497)"/><path class="c" d="M176,516.54l-1.123,6.071-1.623,8.958-1.017,5.616-22.4,123.05c-2.05,5.055-3.544,3.931-4.431,2.117a7.953,7.953,0,0,1-.64-4.835L162.062,555.73l.972-5.734.724-4.268,1.005-5.9,2.808-16.736.562-3.314Z" transform="translate(-105.906 -251.005)"/><path class="b" d="M.96,385.387l13.479,26.688L378.4,390.509l-54.46-19.949Z" transform="translate(-0.421 -162.45)"/><path class="c" d="M.539,396.96,0,418.8l13.748,28.85.27-24Z" transform="translate(0 -174.024)"/><path class="d" d="M89.193,476.17h5.661l-1.247,5.1-5.768.382Z" transform="translate(-38.508 -208.748)"/><path class="d" d="M110.447,476.045l7.818-3.235-1.106,6.077-7.279.472Z" transform="translate(-48.17 -207.275)"/><path class="d" d="M141.352,475.69H145.4l-3.594,3.622-4.482.3Z" transform="translate(-60.199 -208.538)"/><path class="d" d="M516.938,451.21l3.37,3.308-4.852.32-2.286-2.286Z" transform="translate(-224.966 -197.806)"/><path class="d" d="M538.716,446.89l.674,5.06-5.582.371-.477-3.549Z" transform="translate(-233.804 -195.912)"/><path class="d" d="M572.733,447.116l-5.9.388-.876-3.387,4.588-5.4Z" transform="translate(-248.108 -192.331)"/><path class="c" d="M388.71,406.08l.539,21.566-364.769,24,.27-24Z" transform="translate(-10.732 -178.022)"/><path class="d" d="M34.56,449.694l83.849-3.774.27,14.827-83.58,3.5Z" transform="translate(-15.151 -195.487)"/><path class="e" d="M33.12,448.254l83.849-3.774.27,14.827-83.58,3.51Z" transform="translate(-14.519 -194.856)"/><path class="d" d="M193.519,436.333,383.042,425.28l-.27,14.018L192.98,451.429Z" transform="translate(-84.6 -186.439)"/><path class="e" d="M192.079,434.893,381.607,423.84l-.27,14.018-189.8,12.131Z" transform="translate(-83.968 -185.807)"/><path class="d" d="M537.17,420.743l72.252-4.583.539,13.748-71.982,4.852Z" transform="translate(-235.487 -182.441)"/><path class="e" d="M535.73,419.3l72.252-4.583.539,13.748-71.982,4.852Z" transform="translate(-234.856 -181.809)"/><rect class="d" width="10.249" height="0.809" transform="matrix(1, -0.026, 0.026, 1, 56.332, 260.006)"/><rect class="c" width="10.249" height="0.809" transform="matrix(1, -0.026, 0.026, 1, 56.333, 259.198)"/><rect class="d" width="10.249" height="0.809" transform="matrix(1, -0.026, 0.026, 1, 254.757, 248.413)"/><rect class="c" width="10.249" height="0.809" transform="matrix(1, -0.026, 0.026, 1, 254.753, 247.605)"/><rect class="d" width="10.249" height="0.809" transform="matrix(1, -0.026, 0.026, 1, 143.413, 254.883)"/><rect class="c" width="10.249" height="0.809" transform="matrix(1, -0.026, 0.026, 1, 143.415, 254.074)"/><rect class="d" width="10.249" height="0.809" transform="matrix(1, -0.026, 0.026, 1, 334.286, 243.023)"/><rect class="c" width="10.249" height="0.809" transform="matrix(1, -0.026, 0.026, 1, 334.288, 242.214)"/><path class="c" d="M816.509,585.106l-9.71-.534-.651-27.867-.157-6.644,10.244-1.881.062,8.553Z" transform="translate(-353.334 -240.316)"/><path class="c" d="M770.443,604.037l-49.877,31-1.078,9.435,5.391.27V638L757.5,619.673l-39.364,48.8v7.548h6.47l-.539-8.357L769.634,615.9l5.661.539,47.99,54.46,1.078,9.166,6.47.27-1.078-9.435L791.74,623.447l25.346,17.522.539,7.548,5.122.27-.539-9.166-48.26-37.2Z" transform="translate(-314.822 -264.094)"/><path class="f" d="M769.9,495.522a88.967,88.967,0,0,0,11.794-19.134c3.431-7.593,7.194-16.36,7.481-18.954.562-4.852,14.287-14.557,29.384-15.1,9.845-.354,25.183-8.037,34.674-13.344a70.6,70.6,0,0,1,29.092-8.986c11.1-.837,21.544,1.342,16.287,14.226L827.973,519.71s-60.205,10.609-63.9-6.447a13.742,13.742,0,0,0-.859-2.5C762.489,509.146,762.3,504.94,769.9,495.522Z" transform="translate(-376.934 -208.617)"/><path class="g" d="M779.811,500.88a91.583,91.583,0,0,0,11.867-19.32c3.207-7.1,6.6-15.057,6.868-17.466.517-4.633,13.67-13.906,28.12-14.422,9.413-.337,24.088-7.672,33.169-12.743a67.574,67.574,0,0,1,27.839-8.576c10.626-.8,20.617,1.286,15.6,13.591l-56,82s-69.079,9.8-72.729-6.414a16.644,16.644,0,0,0-.865-2.516C773.043,513.421,772.953,509.484,779.811,500.88Z" transform="translate(-381.547 -212.279)"/><path class="d" d="M891.956,600.459c-3.246,0-6.666,0-10.154-.034l-.152-6.638,10.238-1.887Z" transform="translate(-428.999 -284.042)"/><g class="h" transform="translate(403.318 350.187)"><path d="M874.536,654.5,849.19,636.98l2.909,3.628,22.437,15.512.539,7.548,5.122.27-.1-1.623-5.026-.264Z" transform="translate(-775.59 -629.432)"/><path d="M730.14,648.591v1.617l30.237-16.989,2.387-2.96Z" transform="translate(-723.401 -626.486)"/><path d="M718.14,730.59v1.617h6.47l-.1-1.617Z" transform="translate(-718.14 -670.469)"/><path d="M725.932,674.7l-5.206-.258-.185,1.606,5.391.27Z" transform="translate(-719.192 -645.854)"/><path d="M828.993,687.7l-1.078-9.166-47.99-54.46-5.661-.539L728.7,675.3l.1,1.505,45.463-51.652,5.661.539,47.99,54.46,1.078,9.166,6.47.27-.185-1.629Z" transform="translate(-722.769 -623.54)"/></g><path class="i" d="M571.344,492.045c8.845,7.054,14.383.522,14.383.522s14.917-10.631,15.248-12.125a14.166,14.166,0,0,1,.854-2.634s2.454.421,2.454-.736,2.555-1.578,4.044-2.527,10.873-9.16,10.873-9.16.32-1.786,4.622-3.156c3.027-.96,9.469-6.975,13.029-10.463.219-1.41.944-5.7,1.741-7.015a1.932,1.932,0,0,1,1.4-.612l.354-1.3a88.61,88.61,0,0,0,2.3-12.086c.955-8.424,8.1-11.053,9.907-11.053s16.2-6.1,16.2-6.1l23.335-9.474s14.383-4.521,13.849-7.582a2.751,2.751,0,0,1,.034-.977,11.076,11.076,0,0,1,2.808-4.493,31.625,31.625,0,0,1,2.808-2.741l7.75-4.8.6-.371c-2.617-4.178-8.346-9.671-8.346-9.671s1.685-3.156,3.622-3.156c1.28,0,8.424-2.246,13.041-3.74-.477-5.111-1.421-20.684,4.437-23.841l7.015-3.791s-.247.562-.612,1.4l1.039-.562s-.124.264-.315.713c.208-.034.427-.056.651-.073.635-2.246,1.017-4.055.831-4.639-.466-1.466-.562-11.479,3.662-16.635l-3.37-9.789a1.921,1.921,0,0,1,1.219-2.437L751.526,304a1.893,1.893,0,0,1,.842-.084,1.954,1.954,0,0,1,2.1,1.286l2.477,7.206a29.5,29.5,0,0,1,3.162-.562c.736-1.325,1.623-2.606,1.488-4.077a7.105,7.105,0,0,0-.893-2.415,27.618,27.618,0,0,1-2.37-6.97,3.059,3.059,0,0,1-.028-1.477c.365-1.185,1.915-1.595,2.578-2.651a3.657,3.657,0,0,0,.107-2.96c-.427-1.561-1.078-3.055-1.432-4.633a6.777,6.777,0,0,1,.393-4.718,7.481,7.481,0,0,1,2.808-2.634c.3-1.393,1.3-2.707.983-4.089-.191-.831-.848-1.516-.972-2.359-.213-1.522,1.309-2.679,2.645-3.465l11.833-6.992c1.056-.623,2.151-1.258,3.28-1.78A11.514,11.514,0,0,1,787.268,259c3,.376,5.487,2.522,7.34,4.886s3.308,5.055,5.386,7.222c3.8,3.982,9.328,5.9,13.479,9.547a9.306,9.306,0,0,1,2.679,3.533c1.73,4.588-2.533,9.323-2.5,14.22,0,4.291,3.314,7.863,6.739,10.508,1.455,1.123,3.089,2.364,3.37,4.167.225,1.393-.421,2.752-.82,4.1a13.478,13.478,0,0,0,.41,8.475c2.69,1.775,4.611,2.977,4.611,2.977s11.081,9.267,17.264,11.373a1.2,1.2,0,0,1,.629.376c1.685,1.039,6.385,3.976,7.256,5.515,1.067,1.9,8.312,9.053,3.622,11.58a26.135,26.135,0,0,1-8.739,2.948s-10.867,3.37-15.13,5.476a46.611,46.611,0,0,1-8.048,2.808,16.288,16.288,0,0,0,3.235,8.2h.118a13.364,13.364,0,0,0,1.792,1.949l-1.179.185.079.073c-3.089.494-6.268.983-9.312.286s-5.959-2.887-6.515-5.925c-.6-3.274,1.449-7.2-.775-9.688a4.84,4.84,0,0,0-2.808-1.432c-1.477,1.949-12.327,15.759-22.173,12.732,2.246,5.987,6.24,16.427,7,16.725,1.067.421-10.867,4.212-10.867,4.212s-2.348-.382-5.712-.7c0,.4.045.826.073,1.269.23,4.133.382,9.688-.331,11.232a7.9,7.9,0,0,0-.427,1.191,20.74,20.74,0,0,1-6.425,10.334l-1.039.87a13.985,13.985,0,0,0-3.37,4.42,17.247,17.247,0,0,1-10.109,8.739,22.357,22.357,0,0,1-10.513.629s-23.958,2.319-37.168,3.37-27.6,7.161-27.6,7.161a61.111,61.111,0,0,0-11.362,10.777c-.354.461-.691.927-1.022,1.393l2.05,3.617s-9.744,7.1-16.287,12.417v.955c.32,7.054-9.059,16.95-9.059,16.95s-2.875,4-4.369,6,2.561,3.263,2.561,3.263-6.739,1.893-4.049,8.947.741,11.687.741,11.687l-3.931,18.842h-8.245l1.6-13.052c-2.875-.213-10.547,11.575-10.547,11.575s-20.033-3.05-23.655-4.105-2.982-7.79,3.931-6.313a11.912,11.912,0,0,0,11.081-3.263s4.9-5.689,7.672-20.218a105.506,105.506,0,0,1,3.566-12.6c-3.8,5.773-5.908,14.243-6.739,14.7-1.174.629-15.871,17.264-15.871,17.264l-5.8-5.689,9.952-11.575s-9.059.1-12.788,2.628-8.649,1.264-8.649,1.264-11.294-8.947-14.04-12.316S562.5,484.968,571.344,492.045Z" transform="translate(-290.216 -138.078)"/><path class="j" d="M865.578,406.266s4.824-1.471,4.617,1.045,2.516,4.83,2.516,4.83L868.3,423.688l-9.862-3.572,3.123-9.862Z" transform="translate(-418.824 -202.475)"/><path class="k" d="M865.578,406.266s4.824-1.471,4.617,1.045,2.516,4.83,2.516,4.83L868.3,423.688l-9.862-3.572,3.123-9.862Z" transform="translate(-418.824 -202.475)"/><path class="l" d="M911.859,295.446a9.337,9.337,0,0,0-3.886,3.3,6.875,6.875,0,0,0-.393,4.706c.343,1.567.994,3.066,1.415,4.617a3.785,3.785,0,0,1-.107,2.954c-.651,1.056-2.179,1.46-2.544,2.645a3.112,3.112,0,0,0,.034,1.471,27.886,27.886,0,0,0,2.331,6.947,7.012,7.012,0,0,1,.882,2.409c.213,2.348-2.162,4.212-2.364,6.554a7.4,7.4,0,0,0,.955,3.639,7.709,7.709,0,0,0,2.364,3.415,6.029,6.029,0,0,0,5.015.438c1.646-.472,3.224-1.292,4.9-1.685,1.55-.388,3.218-.438,4.628-1.185,2.4-1.269,3.4-4.122,4.1-6.739a10.689,10.689,0,0,0,.449-5.38,17.63,17.63,0,0,0-1.443-3.207,23.93,23.93,0,0,0-1.943-3.931c-.859-1.174-2.016-2.061-2.364-3.415-.4-1.567.461-3.134,1.179-4.577a31.712,31.712,0,0,0,1.629-3.931,7.016,7.016,0,0,0,.477-3.4c-.416-2.37-2.864-3.808-5.184-4.442-1.685-.461-3.5-.668-5.172-1.286a8.007,8.007,0,0,0-2.207-.837A5.061,5.061,0,0,0,911.859,295.446Z" transform="translate(-439.793 -153.674)"/><path class="m" d="M697.72,560.257l19.46,2.617h.062s19.415-23.195,19.73-23.3l21.937-7.767,14.7-4.308,1.994-9.547-19.522-.736-6.4.943-22.987,9.452s-14.169,6.088-15.956,6.088-8.817,2.623-9.761,11.019a87.863,87.863,0,0,1-2.246,12.047C698.147,558.937,697.72,560.257,697.72,560.257Z" transform="translate(-348.367 -251.303)"/><path class="n" d="M697.72,560.617l19.46,2.617h.062s19.415-23.195,19.73-23.3l21.937-7.767,14.7-4.308,1.994-9.547-19.522-.736-6.4.943-22.987,9.452s-14.169,6.088-15.956,6.088-8.817,2.623-9.761,11.019a87.86,87.86,0,0,1-2.246,12.047C698.147,559.3,697.72,560.617,697.72,560.617Z" transform="translate(-348.367 -251.461)"/><path class="d" d="M801.449,518.16l-.949,1.6s6.739,3.617,6.178,5.01l9.75-3.931Z" transform="translate(-393.424 -251.715)"/><path class="d" d="M697.72,589.834l19.46,2.617c1.258-4.493,2.246-7.762,2.246-7.762L705.993,587a34.43,34.43,0,0,0-7.3-.657C698.147,588.515,697.72,589.834,697.72,589.834Z" transform="translate(-348.367 -280.881)"/><path class="o" d="M670.421,589.248s-8.082-1.573-9.025,0-1.786,7.453-1.786,7.453-15.854,37.151-18.573,51.635-7.559,20.151-7.559,20.151a11.659,11.659,0,0,1-10.918,3.257c-6.818-1.472-7.447,5.245-3.881,6.3s23.3,4.094,23.3,4.094,7.554-11.755,10.39-11.547L650.8,683.605h8.082l3.881-18.792s1.887-4.617-.736-11.648,3.987-8.924,3.987-8.924-3.987-1.258-2.516-3.252,4.3-5.981,4.3-5.981,9.239-9.845,8.924-16.9,7.133-31.17,7.133-31.17Z" transform="translate(-312.779 -281.867)"/><path class="d" d="M670.421,589.248s-8.082-1.573-9.025,0-1.786,7.453-1.786,7.453-15.854,37.151-18.573,51.635-7.559,20.151-7.559,20.151a11.659,11.659,0,0,1-10.918,3.257c-6.818-1.472-7.447,5.245-3.881,6.3s23.3,4.094,23.3,4.094,7.554-11.755,10.39-11.547L650.8,683.605h8.082l3.881-18.792s1.887-4.617-.736-11.648,3.987-8.924,3.987-8.924-3.987-1.258-2.516-3.252,4.3-5.981,4.3-5.981,9.239-9.845,8.924-16.9,7.133-31.17,7.133-31.17Z" transform="translate(-312.779 -281.867)"/><path class="d" d="M677.808,693.09S675,712.084,671.3,713.449,677.808,693.09,677.808,693.09Z" transform="translate(-336.43 -328.402)"/><path class="d" d="M687.026,666.36c-.315.315-9.025,11.654-12.49,11.755S687.026,666.36,687.026,666.36Z" transform="translate(-337.988 -316.684)"/><path class="m" d="M721.64,558s9.547,24.874,13.855,17.214a30.762,30.762,0,0,1,2.348-3.527,60.417,60.417,0,0,1,11.193-10.749s14.17-6.082,27.182-7.133,36.606-3.353,36.606-3.353l3.061-2.628c.314-17-34.006-24.975-34.006-24.975s-26.239,10.811-36.106,13.956-11.541,7.863-11.541,7.863l-9.845,10.418Z" transform="translate(-358.853 -253.771)"/><path class="d" d="M721.64,583.152s9.547,24.874,13.855,17.214a30.767,30.767,0,0,1,2.348-3.527l-1.573-2.808a46.792,46.792,0,0,0-8.424-11,20.723,20.723,0,0,0-3.437-2.808Z" transform="translate(-358.853 -278.921)"/><path class="o" d="M665.277,592.037s-8.817-10.805-11.232-9.654-13.434,9.34-13.434,9.34-11.047,11.547-15.282,12.917-4.555,3.151-4.555,3.151-9.21,8.177-10.7,9.126-3.993,1.365-3.993,2.516-2.409.736-2.409.736a14.233,14.233,0,0,0-.842,2.623c-.315,1.471-15.006,12.069-15.006,12.069s-5.459,6.509-14.17-.5-6.509,2.308-3.78,5.667,13.855,12.282,13.855,12.282,4.824,1.258,8.5-1.264,12.6-2.645,12.6-2.645l-9.8,11.547,5.706,5.667s14.479-16.584,15.635-17.214,4.622-16.287,11.552-19.415c0,0,19.729-7.559,26.132-12.917s17.214-13.333,17.214-13.333Z" transform="translate(-291.258 -279.832)"/><path class="d" d="M625,666.339c.629-.315,14.6,2.207,11.654,3.729S625,666.339,625,666.339Z" transform="translate(-316.488 -316.663)"/><path class="d" d="M651.93,654.4c.629.421,8.082,2.207,6.178,4.2S651.93,654.4,651.93,654.4Z" transform="translate(-328.294 -311.441)"/><path class="e" d="M790.23,501.383s5.055.107,21.3,3.465S842.893,531.2,842.893,531.2a21.9,21.9,0,0,0,10.356-.629,17.062,17.062,0,0,0,9.969-8.716,13.905,13.905,0,0,1,3.308-4.409l1.022-.865a20.7,20.7,0,0,0,6.324-10.328,7.3,7.3,0,0,1,.421-1.191c.7-1.528.562-7.065.32-11.187-.14-2.679-.32-4.757-.32-4.757L820.136,478.93l-3.078,1.921-7.632,4.791a30.407,30.407,0,0,0-2.78,2.735,11.079,11.079,0,0,0-2.758,4.493,2.651,2.651,0,0,0-.028.983C804.394,496.874,790.23,501.383,790.23,501.383Z" transform="translate(-388.922 -234.517)"/><path class="m" d="M933.433,327.827s5.245,7.352-1.258,20.78,27.519-7.767,27.519-7.767-12.8-19.314-10.918-22.88S933.433,327.827,933.433,327.827Z" transform="translate(-450.787 -163.686)"/><circle class="d" cx="16.584" cy="16.584" r="16.584" transform="translate(470.892 138.924)"/><circle class="m" cx="16.584" cy="16.584" r="16.584" transform="translate(470.892 137.666)"/><path class="d" d="M927.772,356.39s-5.453,8.671,11.232,3.847-13.119,32.956-13.119,32.956L914.13,381.017l4.616-21.409Z" transform="translate(-443.238 -180.798)"/><path class="p" d="M927.772,357.88s-5.453,8.677,11.232,3.847-13.119,32.956-13.119,32.956l-11.755-12.17,4.616-21.414Z" transform="translate(-443.238 -181.451)"/><path class="d" d="M838,480.855a16.133,16.133,0,0,1,1.393,2.376c1.887,4.2,6.5,3.151,6.5,3.151,7.559,4.616,27.519,3.37,27.519,3.37s-4.409,7.346,3.987,4.824c5.161-1.544,12.917-1.191,18.163-.691-.14-2.679-.32-4.757-.32-4.757L841.089,478.94Z" transform="translate(-409.864 -234.522)"/><path class="k" d="M824.43,412.748s7.133,6.925,9.025,11.126,6.5,3.145,6.5,3.145c7.559,4.622,27.519,3.37,27.519,3.37s-4.409,7.346,3.987,4.824,23.717,0,23.717,0,11.76-3.78,10.71-4.2-8.424-20.78-8.424-20.78a8.626,8.626,0,0,1-.562-3.488,7.189,7.189,0,0,1,1.685-4.426,10.428,10.428,0,0,1,3.931-2.808c8.183-3.566,22.667-12.591,22.667-12.591s36.949-5.459,30.861-7.559-17.006-11.333-17.006-11.333-17.214-10.918-20.572-15.534-10.283-6.088-10.283-6.088l-9.609,7.138-17.472,15.534h0l-.842-9.424s-1.893-6.3-4.409-7.981-11.889,1.646-12.558,1.876h-.039s-9.654,27.918-9.233,32.956a12.183,12.183,0,0,1-1.4,5.257c-.6,1.314-1.331,2.7-2.106,4.049a103.1,103.1,0,0,1-5.728,8.772s-14.905,5.055-16.792,5.055S824.43,412.748,824.43,412.748Z" transform="translate(-403.915 -176.423)"/><path class="d" d="M849.67,333.368l1.893,8.3L869.72,331.8l-1.735-14.905-17.472,15.534v-.006Z" transform="translate(-372.482 -138.922)"/><path class="k" d="M848.18,331.878l1.887,8.289,18.163-9.862L866.494,315.4l-17.477,15.534v-.011Z" transform="translate(-371.829 -138.269)"/><path class="d" d="M870.88,431.79c6.88,1.427,37.628,7.863,46.372,10.923a7.217,7.217,0,0,1,1.685-4.431c-8.677-3.982-35.466-15.411-45.951-10.547C872.391,429.05,871.655,430.437,870.88,431.79Z" transform="translate(-424.278 -211.555)"/><path class="d" d="M870.88,428.8c6.88,1.426,37.628,7.863,46.372,10.923a7.217,7.217,0,0,1,1.685-4.431c-8.677-3.982-35.466-15.416-45.951-10.547C872.391,426.052,871.655,427.445,870.88,428.8Z" transform="translate(-424.278 -210.243)"/><path class="k" d="M870.88,430.293c6.88,1.432,37.628,7.891,46.372,10.923a7.189,7.189,0,0,1,1.685-4.426c-8.7-3.987-35.466-15.416-45.951-10.547C872.391,427.558,871.655,428.956,870.88,430.293Z" transform="translate(-424.278 -210.9)"/><circle class="q" cx="2.151" cy="2.151" r="2.151" transform="translate(451.741 221.162)"/><circle class="q" cx="2.151" cy="2.151" r="2.151" transform="translate(444.451 236.219)"/><circle class="q" cx="2.151" cy="2.151" r="2.151" transform="translate(468.741 225.464)"/><circle class="q" cx="2.151" cy="2.151" r="2.151" transform="translate(460.03 241.206)"/><circle class="q" cx="2.151" cy="2.151" r="2.151" transform="translate(457.233 204.577)"/><path class="d" d="M938.05,452.85s8.817,21.673,6.739,24.61S938.05,452.85,938.05,452.85Z" transform="translate(-453.724 -223.084)"/><path class="d" d="M916.012,452.841c1.241-.309-5.246,5.824-5.981,11.44s-5.251,10.339-5.251,10.339l4.493-11.025S914.546,453.206,916.012,452.841Z" transform="translate(-439.139 -223.076)"/><path class="d" d="M866.674,449c-.635.943-9.351,2.623-10.294,12.384Z" transform="translate(-417.921 -221.397)"/><path class="d" d="M965.221,421.36c-1.05.943-12.917,8.918-17.107,9.076S965.221,421.36,965.221,421.36Z" transform="translate(-457.897 -209.28)"/><path class="d" d="M942.457,429.21s-1.786,2.516-3.572,2.516S942.457,429.21,942.457,429.21Z" transform="translate(-453.931 -212.721)"/><path class="d" d="M814.57,500.22c7.587.253,33.057,1,36.758-.067.354-.1-22.51-1.157-27.862-2.207a20.938,20.938,0,0,1-6.138-2.2A11.16,11.16,0,0,0,814.57,500.22Z" transform="translate(-399.593 -241.891)"/><path class="d" d="M889.81,512.56s12.608,9.233,7.1,9.34S889.81,512.56,889.81,512.56Z" transform="translate(-432.577 -249.26)"/><path class="l" d="M927.751,352.049c-.511,1.309-.09,1.522-.388,2.7a8.89,8.89,0,0,0-.241,3.319c.152,1.573-.837,3.443-.051,4.785a3.712,3.712,0,0,1,.315.612,1.814,1.814,0,0,1-.786,1.842,4.662,4.662,0,0,0-1.488,1.359c-.769,1.494.708,3.617,0,5.167a3,3,0,0,1-1.061,1.151,13.593,13.593,0,0,1-3.37,1.775c-.792-1.241.09-3.061-.6-4.375a5.882,5.882,0,0,0-1.421-1.443,7.92,7.92,0,0,1-2.022-4.33c-.292-1.612-.331-3.269-.651-4.875-.522-2.64-1.763-5.111-2.044-7.778a1.123,1.123,0,0,1,.084-.719.887.887,0,0,1,.719-.314c2.443-.208,5.116.444,7.464,0C924.409,350.527,925.847,350.021,927.751,352.049Z" transform="translate(-443.144 -178.242)"/><path class="d" d="M892.89,358.784c.73,3.37,3.162,12.737,8.362,16.91,6.4,5.144,11.232,18.471,11.232,18.471l-1.466,3.465a10.475,10.475,0,0,0,3.145-1.471c1.471-1.05-3.465-21.83-3.465-21.83l-.837-9.446s-1.887-6.3-4.409-7.975C903.016,355.285,893.558,358.548,892.89,358.784Z" transform="translate(-433.927 -180.827)"/><path class="k" d="M893.64,357.279c.73,3.37,3.162,12.737,8.357,16.91,6.4,5.144,11.232,18.477,11.232,18.477l-1.471,3.46a10.442,10.442,0,0,0,3.151-1.466c1.471-1.05-3.465-21.83-3.465-21.83l-.837-9.43s-1.893-6.3-4.409-7.981S894.308,357.049,893.64,357.279Z" transform="translate(-434.256 -180.165)"/><rect class="r" width="12.917" height="27.294" rx="1.7" transform="translate(449.933 170.576) rotate(-18.77)"/><rect class="o" width="12.917" height="27.294" rx="1.7" transform="translate(449.464 170.58) rotate(-18.77)"/><circle class="s" cx="2.027" cy="2.027" r="2.027" transform="translate(455.914 174.11)"/><path class="m" d="M867.05,400.568v.736l7.863-4.038.809-3.965,1.41-6.9s15.95-23.4,5.341-23.711S871.8,380.31,872.408,382.3c.449,1.432-2.488,10.176-4.19,15.034C867.533,399.259,867.05,400.568,867.05,400.568Z" transform="translate(-422.599 -183.557)"/><path class="d" d="M854.286,433.906s-2.729-21.622,4.2-25.4l6.925-3.774s-5.667,12.7-3.37,13.17,9.025-5.4,9.025-5.4v13.642Z" transform="translate(-416.771 -201.989)"/><path class="d" d="M867.05,424.467v.736l7.863-4.038.809-3.965c-2.14,1.685-5.83,4.392-7.419,4.072a.48.48,0,0,1-.1-.034C867.533,423.159,867.05,424.467,867.05,424.467Z" transform="translate(-422.599 -207.456)"/><path class="k" d="M853.586,432.406s-2.729-21.617,4.2-25.4l6.925-3.78s-5.667,12.7-3.37,13.175S870.367,411,870.367,411v13.647Z" transform="translate(-416.464 -201.332)"/><circle class="q" cx="2.151" cy="2.151" r="2.151" transform="translate(474.2 209.407)"/><path class="f" d="M795.49,527.018S816.382,525.4,824.2,510.3c0,0,15.911-31.546,28.85-35.05s36.932-11.322,46.906-23.453,14.158-21.431,14.158-21.431,2.561,9.839-5.526,21.431-11.058,29.384-16.719,48.26-7.818,26.4-18.062,27.519c-7.722.814-48.552.4-68.073,0C799.354,527.428,795.49,527.018,795.49,527.018Z" transform="translate(-391.228 -213.229)"/><path class="g" d="M795.49,527.018S816.382,525.4,824.2,510.3c0,0,15.911-31.546,28.85-35.05s36.932-11.322,46.906-23.453,14.158-21.431,14.158-21.431,2.561,9.839-5.526,21.431-11.058,29.384-16.719,48.26-7.818,26.4-18.062,27.519c-7.722.814-48.552.4-68.073,0C799.354,527.428,795.49,527.018,795.49,527.018Z" transform="translate(-391.228 -213.229)"/><path class="f" d="M804.85,529.472s19.971-1.567,27.446-16.186c0,0,15.2-30.541,27.57-33.933s35.3-10.968,44.839-22.712,13.529-20.752,13.529-20.752,2.449,9.547-5.285,20.752-10.564,28.451-15.978,46.7-7.469,25.582-17.264,26.626c-7.38.786-46.406.388-65.069,0C808.54,529.865,804.85,529.472,804.85,529.472Z" transform="translate(-395.331 -215.649)"/><path class="m" d="M982.982,428.27s-9.66.629-12.6,1.786c-1.561.612-5.538,1.123-8.918,1.5a18.09,18.09,0,0,0-12.355,6.672c-2.752,3.488-4.139,7.8,1.314,11.047,10.918,6.509,24.149-11.962,24.149-11.962l11.541-1.685Z" transform="translate(-457.512 -212.309)"/><path class="k" d="M1003.09,416.406c3.774-.264,7.975,17.264,7.975,17.264a58.1,58.1,0,0,0,11.126-3.572c4.2-2.1,14.905-5.453,14.905-5.453a25.5,25.5,0,0,0,8.6-2.943c4.616-2.516-2.522-9.654-3.566-11.541s-7.767-5.88-7.767-5.88l-5.251-1.05-23.717,4.2L1020.719,411l-1.91.59-5.139,1.573Z" transform="translate(-482.237 -201.332)"/><path class="k" d="M1021.93,419.665l4.532,12.114c9.132,7.133,8.424-2.808,8.424-2.808l-7.79-10.9Z" transform="translate(-490.496 -207.837)"/><path class="d" d="M1023.37,420.385,1027.9,432.5c9.132,7.133,8.424-2.808,8.424-2.808l-7.789-10.9Z" transform="translate(-491.127 -208.153)"/><circle class="q" cx="2.151" cy="2.151" r="2.151" transform="translate(539.325 221.162)"/><path class="d" d="M916.482,285.378a2.965,2.965,0,0,1-2.432-2.864c0-1.64,1.41-3.145,1.039-4.746-.185-.826-.831-1.511-.955-2.353-.213-1.516,1.292-2.668,2.606-3.454l11.654-6.97c2.78-1.685,5.83-3.37,9.036-2.977,2.96.376,5.4,2.51,7.234,4.869s3.252,5.055,5.3,7.2c3.74,3.965,9.188,5.88,13.254,9.514a9.331,9.331,0,0,1,2.64,3.521c1.685,4.572-2.494,9.295-2.465,14.181,0,4.279,3.263,7.829,6.627,10.474,1.432,1.123,3.038,2.359,3.325,4.156.225,1.387-.41,2.741-.8,4.089-2.01,6.863,2.37,14.13,7.992,18.533,1.685,1.32,3.578,2.634,4.19,4.673.91,2.988-1.342,5.914-3.257,8.385-3.37,4.324-6.178,9.25-6.986,14.664s.651,11.378,4.734,15.034c-3.044.489-6.178.977-9.177.281s-5.869-2.875-6.414-5.9c-.59-3.263,1.427-7.177-.769-9.665-1.685-1.887-4.628-1.533-7.127-1.865a11.648,11.648,0,0,1-9.789-10.671c-.163-3.7,1.483-7.2,2.757-10.671s2.2-7.43.663-10.8c-2.482-5.425-10.564-7.688-10.912-13.642-.208-3.5,2.566-7.065,1.123-10.261-.96-2.151-3.42-3.106-5.257-4.572-2.892-2.3-4.291-5.942-6.178-9.109a43.288,43.288,0,0,0-5.459-7c-.657-.708-1.9-2.561-2.892-2.808C918.627,284.39,917.734,285.569,916.482,285.378Z" transform="translate(-443.203 -139.4)"/><path class="l" d="M917.977,284.629a2.971,2.971,0,0,1-2.437-2.859c0-1.646,1.41-3.151,1.045-4.751-.191-.826-.837-1.511-.955-2.353-.213-1.516,1.286-2.668,2.6-3.454l11.659-6.97c2.774-1.657,5.824-3.37,9.031-2.977,2.965.376,5.4,2.51,7.234,4.869s3.257,5.055,5.3,7.206c3.74,3.965,9.194,5.874,13.254,9.508a9.21,9.21,0,0,1,2.64,3.521c1.685,4.577-2.493,9.3-2.465,14.181.028,4.279,3.269,7.829,6.627,10.474,1.432,1.123,3.044,2.359,3.33,4.156.219,1.387-.415,2.741-.809,4.089-2.011,6.869,2.376,14.13,7.992,18.533,1.685,1.32,3.577,2.634,4.2,4.673.9,2.993-1.342,5.914-3.257,8.385-3.37,4.324-6.178,9.25-6.992,14.664s.657,11.384,4.734,15.034c-3.038.489-6.178.983-9.171.286s-5.869-2.881-6.419-5.908c-.562-3.263,1.432-7.177-.764-9.66-1.685-1.893-4.628-1.539-7.127-1.87a11.642,11.642,0,0,1-9.789-10.671c-.163-3.7,1.477-7.2,2.758-10.671s2.2-7.4.657-10.772c-2.477-5.425-10.558-7.683-10.912-13.642-.2-3.493,2.572-7.065,1.123-10.261-.96-2.151-3.42-3.106-5.262-4.572-2.892-2.3-4.291-5.942-6.178-9.109a43,43,0,0,0-5.459-7c-.657-.713-1.9-2.567-2.9-2.808C920.117,283.646,919.23,284.825,917.977,284.629Z" transform="translate(-443.856 -139.072)"/><path class="d" d="M917.019,284.99c-.191-.831-.837-1.511-.955-2.353-.213-1.522,1.286-2.668,2.606-3.454l.27-.163a2.061,2.061,0,0,0-.146,1.123c.118.842.764,1.528.955,2.353.365,1.6-1.028,3.106-1.045,4.746a2.971,2.971,0,0,0,2.437,2.864c1.252.191,2.14-.988,3.285-.73.994.225,2.246,2.078,2.9,2.808a43.279,43.279,0,0,1,5.459,7c1.909,3.168,3.3,6.807,6.178,9.109,1.842,1.466,4.3,2.421,5.262,4.572,1.432,3.2-1.342,6.739-1.123,10.261.348,5.953,8.424,8.216,10.907,13.642,1.539,3.37.618,7.3-.657,10.8s-2.921,6.975-2.758,10.671a11.642,11.642,0,0,0,9.789,10.671c2.5.331,5.459,0,7.127,1.87,2.2,2.482.18,6.4.764,9.66.562,3.027,3.42,5.206,6.419,5.9a15.725,15.725,0,0,0,4.678.3,13.4,13.4,0,0,0,1.769,1.881c-3.038.494-6.178.983-9.171.286s-5.869-2.875-6.414-5.908c-.562-3.263,1.427-7.177-.769-9.66-1.685-1.893-4.628-1.533-7.127-1.865a11.648,11.648,0,0,1-9.789-10.671c-.163-3.7,1.477-7.206,2.758-10.671s2.2-7.43.657-10.8c-2.477-5.425-10.558-7.683-10.907-13.636-.208-3.5,2.567-7.065,1.123-10.266-.96-2.145-3.42-3.1-5.262-4.566-2.892-2.308-4.285-5.948-6.178-9.115a43.245,43.245,0,0,0-5.459-7c-.657-.708-1.9-2.561-2.892-2.808-1.123-.258-2.039.921-3.291.73a2.977,2.977,0,0,1-2.437-2.864C915.991,288.1,917.384,286.591,917.019,284.99Z" transform="translate(-444.049 -146.88)"/><path class="d" d="M776.05,582.964s10.918,4.178,17.118,1.887,21.566-9.031,21.566-9.031S788.855,577.437,776.05,582.964Z" transform="translate(-382.706 -276.992)"/><path class="f" d="M610.567,383.17s-2.578,12,8.9,13.428l.708-1.337S611.263,386.9,610.567,383.17Z" transform="translate(-310.052 -192.538)"/><path class="f" d="M626.582,390.446l-2.668.562-.27.056s-7.116-5.779-7.026-18.674a32.08,32.08,0,0,0,3.37,5.375C622.842,381.505,626.049,386.487,626.582,390.446Z" transform="translate(-312.814 -187.812)"/><path class="f" d="M631.046,388.214a1.685,1.685,0,0,1-1.432.191c-6.852-1.6-4.538-23.925-4.538-23.925.382.18.8,3.016,2.37,6.683C630.187,377.6,633.225,386.6,631.046,388.214Z" transform="translate(-316.357 -184.344)"/><path class="f" d="M653.833,383.17s.444,12-11.03,13.428l-.713-1.337S653.131,386.9,653.833,383.17Z" transform="translate(-323.98 -192.538)"/><path class="f" d="M647.717,372.4a22.179,22.179,0,0,1-9.16,18.674l-.27-.056-2.668-.562c.528-3.959,3.74-8.941,6.56-12.676A28.991,28.991,0,0,1,647.717,372.4Z" transform="translate(-321.144 -187.816)"/><path class="f" d="M636.964,387.046a4.191,4.191,0,0,1-1.528,1.168h0a2.88,2.88,0,0,1-.562.191c-1.685.393-2.275-.826-2.173-2.887.157-3.679,2.465-10.053,4.543-14.827a18.368,18.368,0,0,1,4.3-6.211C641.541,364.48,641.44,381.862,636.964,387.046Z" transform="translate(-319.859 -184.344)"/><path class="f" d="M633.971,350.54s-7.649,27.126-1.067,31.22S635.662,352.944,633.971,350.54Z" transform="translate(-318.782 -178.233)"/><path class="d" d="M610.567,383.17s-2.578,12,8.9,13.428l.708-1.337S611.263,386.9,610.567,383.17Z" transform="translate(-310.052 -192.538)"/><path class="d" d="M626.582,390.446l-2.668.562-.27.056s-7.116-5.779-7.026-18.674a32.08,32.08,0,0,0,3.37,5.375C622.842,381.505,626.049,386.487,626.582,390.446Z" transform="translate(-312.814 -187.812)"/><path class="d" d="M631.046,388.214a1.685,1.685,0,0,1-1.432.191c-6.852-1.6-4.538-23.925-4.538-23.925.382.18.8,3.016,2.37,6.683C630.187,377.6,633.225,386.6,631.046,388.214Z" transform="translate(-316.357 -184.344)"/><path class="d" d="M653.833,383.17s.444,12-11.03,13.428l-.713-1.337S653.131,386.9,653.833,383.17Z" transform="translate(-323.98 -192.538)"/><path class="d" d="M647.717,372.4a22.179,22.179,0,0,1-9.16,18.674l-.27-.056-2.668-.562c.528-3.959,3.74-8.941,6.56-12.676A28.991,28.991,0,0,1,647.717,372.4Z" transform="translate(-321.144 -187.816)"/><path class="d" d="M636.964,387.046a4.191,4.191,0,0,1-1.528,1.168h0a2.88,2.88,0,0,1-.562.191c-1.685.393-2.275-.826-2.173-2.887.157-3.679,2.465-10.053,4.543-14.827a18.368,18.368,0,0,1,4.3-6.211C641.541,364.48,641.44,381.862,636.964,387.046Z" transform="translate(-319.859 -184.344)"/><path class="d" d="M633.971,350.54s-7.649,27.126-1.067,31.22S635.662,352.944,633.971,350.54Z" transform="translate(-318.782 -178.233)"/><path class="f" d="M610.709,383.17s-1.511,12,9.963,13.428l.708-1.337S611.405,386.9,610.709,383.17Z" transform="translate(-310.194 -192.538)"/><path class="f" d="M627.65,390.446l-2.668.562-.27.056s-8.183-5.779-8.093-18.674c0,0,2.095,2.246,4.493,5.375C623.909,381.505,627.116,386.487,627.65,390.446Z" transform="translate(-312.814 -187.812)"/><path class="d" d="M631.135,394.641l-2.668.562c-2.533-2.246-3.533-8.014-3.9-13.243C627.395,385.7,630.6,390.682,631.135,394.641Z" transform="translate(-316.299 -192.007)"/><path class="f" d="M632.29,388.214a1.685,1.685,0,0,1-1.432.191c-6.852-1.6-5.616-23.925-5.616-23.925.382.18,1.865,3.016,3.437,6.683C631.454,377.6,634.492,386.6,632.29,388.214Z" transform="translate(-316.556 -184.344)"/><path class="f" d="M654.671,383.17s1.511,12-9.963,13.428L644,395.262S653.969,386.9,654.671,383.17Z" transform="translate(-324.817 -192.538)"/><path class="f" d="M648.55,372.4c.084,12.917-8.093,18.674-8.093,18.674l-.27-.056-2.668-.562c.528-3.959,3.74-8.941,6.56-12.676C646.455,374.646,648.55,372.4,648.55,372.4Z" transform="translate(-321.977 -187.816)"/><path class="d" d="M644.08,382c-.342,4.875-1.235,10.238-3.4,12.743a4.173,4.173,0,0,1-.494.5l-2.668-.562C638.048,390.7,641.26,385.718,644.08,382Z" transform="translate(-321.977 -192.025)"/><path class="f" d="M638.864,387.046a4.19,4.19,0,0,1-1.528,1.168h0a2.882,2.882,0,0,1-.562.191c-1.685.393-2.275-.826-2.173-2.887.157-3.679,2.465-10.053,4.543-14.827,1.494-3.437,2.87-6.037,3.235-6.211C642.374,364.48,643.34,381.862,638.864,387.046Z" transform="translate(-320.692 -184.344)"/><path class="d" d="M634.733,393.431a1.9,1.9,0,0,1-1.078-.343c-3.224-2.011-3.291-9.547-2.522-16.708C633.9,382.822,636.935,391.819,634.733,393.431Z" transform="translate(-318.999 -189.561)"/><path class="d" d="M638.873,391.894c-.371.8-.871,1.23-1.528,1.168h0a2.083,2.083,0,0,1-.915-.343,4.864,4.864,0,0,1-1.82-2.353c.157-3.678,2.466-10.053,4.543-14.827C639.884,382.161,640.136,389.182,638.873,391.894Z" transform="translate(-320.701 -189.193)"/><path class="f" d="M634.607,350.54s-6.582,27.126,0,31.22S636.3,352.944,634.607,350.54Z" transform="translate(-319.417 -178.233)"/><path class="t" d="M562.326,360.02h-27.4v4.538h4.184l.1.534,1.674,8.806h15.922l1.679-8.806.1-.534h3.735Z" transform="translate(-234.505 -157.83)"/><path class="d" d="M562.326,360.02h-27.4v4.538h4.184l.1.534,1.674,8.806h15.922l1.679-8.806.1-.534h3.735Z" transform="translate(-234.505 -157.83)"/><path class="t" d="M563.83,364.77l-.455,2.4L561.7,375.98H545.774l-1.674-8.806-.461-2.4Z" transform="translate(-238.324 -159.912)"/><path class="d" d="M563.83,364.77l-.455,2.4H544.1l-.461-2.4Z" transform="translate(-238.324 -159.912)"/><rect class="t" width="27.39" height="4.538" transform="translate(301.492 202.19)"/><path class="f" d="M213.871,702.884a9.467,9.467,0,0,0-1.275,2.409c-.084.208-.157.449-.236.68a2.61,2.61,0,0,0-.444-.157,6.358,6.358,0,0,0-2-.168c0-.264.028-.562.039-.826.079-2.96-.27-7.082-3.089-5.335-2.713,1.685-.781,4.493.966,6.29l.449.444c-1.589,1.123-1.893,3.78-2.162,6.537s-2.606,5.768-4.145,7.492l-.438.472a5.7,5.7,0,0,0-4.493-1.162l-.208-.758c-1.258-4.543-3.87-12.412-7.2-14.136.14-.174.286-.354.438-.562,1.415-1.848,3-4.6.651-5.3s-2.561,2.387-2.432,4.7a4.815,4.815,0,0,0,.067.825,3.454,3.454,0,0,0-2.465,1.2l-.359-.432c-1.909-2.246-5.414-5.824-6.47-3.123-.988,2.516,2.095,5.785,4.263,7.677l.135.118c-1.46,5.9,4.9,10.716,8.318,12.822l.438.27c-4.718,5.56-7.627,15.984-7.627,15.984L197.8,741.2s8.756-7.559,7.638-14.658a.5.5,0,0,0,.09,0c8.75-1.752,10.744-11.086,9.379-16.624l.157-.067a9.934,9.934,0,0,0,4.049-3.066C221.525,703.361,216.387,699.542,213.871,702.884Z" transform="translate(-120.912 -330.861)"/><path class="d" d="M213.871,702.884a9.467,9.467,0,0,0-1.275,2.409c-.084.208-.157.449-.236.68a2.61,2.61,0,0,0-.444-.157,6.358,6.358,0,0,0-2-.168c0-.264.028-.562.039-.826.079-2.96-.27-7.082-3.089-5.335-2.713,1.685-.781,4.493.966,6.29l.449.444c-1.589,1.123-1.893,3.78-2.162,6.537s-2.606,5.768-4.145,7.492l-.438.472a5.7,5.7,0,0,0-4.493-1.162l-.208-.758c-1.258-4.543-3.87-12.412-7.2-14.136.14-.174.286-.354.438-.562,1.415-1.848,3-4.6.651-5.3s-2.561,2.387-2.432,4.7a4.815,4.815,0,0,0,.067.825,3.454,3.454,0,0,0-2.465,1.2l-.359-.432c-1.909-2.246-5.414-5.824-6.47-3.123-.988,2.516,2.095,5.785,4.263,7.677l.135.118c-1.46,5.9,4.9,10.716,8.318,12.822l.438.27c-4.718,5.56-7.627,15.984-7.627,15.984L197.8,741.2s8.756-7.559,7.638-14.658a.5.5,0,0,0,.09,0c8.75-1.752,10.744-11.086,9.379-16.624l.157-.067a9.934,9.934,0,0,0,4.049-3.066C221.525,703.361,216.387,699.542,213.871,702.884Z" transform="translate(-120.912 -330.861)"/><path class="f" d="M188.176,708.5l-1.544,4.532s-.854-.607-1.938-1.561c-2.168-1.893-5.251-5.161-4.263-7.677,1.056-2.7,4.56.865,6.47,3.122C187.671,707.8,188.176,708.5,188.176,708.5Z" transform="translate(-121.513 -332.669)"/><path class="f" d="M198.769,704.115a21.385,21.385,0,0,1-1.505,1.775,21.916,21.916,0,0,1-.275-2.381c-.129-2.308.112-5.386,2.432-4.7S200.184,702.244,198.769,704.115Z" transform="translate(-128.842 -330.867)"/><path class="f" d="M232.186,705.111c-.051,1.488-.2,2.679-.2,2.679a19.449,19.449,0,0,1-1.926-1.724c-1.747-1.808-3.679-4.611-.966-6.29C231.916,698.035,232.264,702.152,232.186,705.111Z" transform="translate(-142.339 -331.151)"/><path class="f" d="M246.239,709.03a9.936,9.936,0,0,1-4.049,3.066,10.888,10.888,0,0,1-1.359.494L239,710.035a18.069,18.069,0,0,1,.753-2.482,9.47,9.47,0,0,1,1.275-2.409C243.555,701.8,248.693,705.621,246.239,709.03Z" transform="translate(-147.271 -333.12)"/><path class="d" d="M190.377,710.09c.769.9,1.275,1.6,1.275,1.6l-1.544,4.532s-.854-.607-1.938-1.561a8.807,8.807,0,0,1,1.735-3.971C190.063,710.461,190.225,710.27,190.377,710.09Z" transform="translate(-124.988 -335.854)"/><path class="d" d="M198.79,707.857a21.4,21.4,0,0,1-1.505,1.775,21.9,21.9,0,0,1-.275-2.381,3.118,3.118,0,0,1,1.78.607Z" transform="translate(-128.864 -334.609)"/><path class="f" d="M202.435,726.438l-3.841,1.685a23.226,23.226,0,0,1-2.044-1.157c-4.038-2.482-12.159-8.733-6.739-16.1s9.98,5.846,11.794,12.311C202.143,725.112,202.435,726.438,202.435,726.438Z" transform="translate(-124.915 -335.242)"/><path class="d" d="M231.87,710.555a3.184,3.184,0,0,1,2.123-.955c-.051,1.488-.2,2.679-.2,2.679a19.474,19.474,0,0,1-1.926-1.724Z" transform="translate(-144.146 -335.64)"/><path class="d" d="M242.19,714.984a10.9,10.9,0,0,1-1.359.494L239,712.922a18.072,18.072,0,0,1,.753-2.482C240.938,711.125,241.808,712.833,242.19,714.984Z" transform="translate(-147.271 -336.008)"/><path class="f" d="M221.671,731.924c-.213.045-.427.084-.646.118-12.878,1.954-4.246-4.993-4.246-4.993s.562-.562,1.365-1.4c1.55-1.719,3.892-4.718,4.156-7.492.4-4.173.876-8.087,5.8-6.941C232.937,712.347,233.858,729.487,221.671,731.924Z" transform="translate(-136.289 -336.258)"/><rect class="o" width="24.604" height="6.47" transform="translate(60.536 427.729)"/><rect class="o" width="32.147" height="22.577" transform="translate(56.628 406.702)"/><rect class="d" width="24.604" height="6.47" transform="translate(60.536 427.729)"/><rect class="d" width="32.147" height="22.577" transform="translate(56.628 406.702)"/><rect class="o" width="24.604" height="6.47" transform="translate(62.154 427.729)"/><path class="d" d="M208.275,734.49c.562,1.932.831,3.257.831,3.257l-3.841,1.685a23.223,23.223,0,0,1-2.044-1.157A9.862,9.862,0,0,1,208.275,734.49Z" transform="translate(-131.586 -346.551)"/><path class="d" d="M221.671,743.349c-.213.045-.427.084-.646.118-12.878,1.954-4.246-4.993-4.246-4.993s.562-.562,1.365-1.4A8.508,8.508,0,0,1,221.671,743.349Z" transform="translate(-136.289 -347.682)"/><path class="f" d="M190.42,755.047s7.211-25.834,17.32-17.859-4.111,20.218-4.111,20.218Z" transform="translate(-125.975 -347.063)"/><circle class="d" cx="0.809" cy="0.809" r="0.809" transform="translate(67.276 378.869)"/><circle class="d" cx="0.809" cy="0.809" r="0.809" transform="translate(67.208 382.643)"/><circle class="d" cx="0.809" cy="0.809" r="0.809" transform="translate(90.667 379.61)"/><circle class="d" cx="0.809" cy="0.809" r="0.809" transform="translate(71.791 398.952)"/><circle class="d" cx="0.809" cy="0.809" r="0.809" transform="translate(88.982 385.878)"/><circle class="d" cx="0.809" cy="0.809" r="0.809" transform="translate(80.62 394.235)"/><circle class="d" cx="0.809" cy="0.809" r="0.809" transform="translate(70.039 380.486)"/><circle class="d" cx="0.809" cy="0.809" r="0.809" transform="translate(88.443 382.036)"/><circle class="d" cx="0.809" cy="0.809" r="0.809" transform="translate(85.674 388.304)"/><circle class="d" cx="0.809" cy="0.809" r="0.809" transform="translate(77.183 398.346)"/><circle class="d" cx="0.809" cy="0.809" r="0.809" transform="translate(75.431 394.37)"/><circle class="d" cx="0.809" cy="0.809" r="0.809" transform="translate(71.252 385.406)"/><rect class="d" width="24.604" height="2.364" transform="translate(62.154 427.729)"/><rect class="o" width="32.147" height="22.577" transform="translate(58.245 406.702)"/><circle class="d" cx="0.809" cy="0.809" r="0.809" transform="translate(78.261 401.985)"/><circle class="d" cx="0.809" cy="0.809" r="0.809" transform="translate(73.409 402.996)"/><path class="u" d="M688.544,437.693c0,2.437-5.24,5.307-11.71,5.307s-11.7-2.87-11.7-5.307,5.24-3.533,11.7-3.533S688.544,435.25,688.544,437.693Z" transform="translate(-334.08 -214.891)"/><path class="d" d="M688.544,437.693c0,2.437-5.24,5.307-11.71,5.307s-11.7-2.87-11.7-5.307,5.24-3.533,11.7-3.533S688.544,435.25,688.544,437.693Z" transform="translate(-334.08 -214.891)"/><ellipse class="u" cx="11.71" cy="4.42" rx="11.71" ry="4.42" transform="translate(331.05 218.382)"/><ellipse class="d" cx="6.621" cy="2.499" rx="6.621" ry="2.499" transform="translate(336.138 220.302)"/><path class="k" d="M698.153,427.708c-1.123,2.9-2.87,3.746-4.235,3.931a4.571,4.571,0,0,1-2.039-.208l.809-1.73a2.74,2.74,0,0,0,1.561,0,3.353,3.353,0,0,0,2.05-2.247c.859-2.2-.213-2.522-.96-2.51a2.946,2.946,0,0,0-.455.045l.64-1.365a4.345,4.345,0,0,1,.64-.112C697.378,423.4,699.743,423.625,698.153,427.708Z" transform="translate(-345.807 -210.214)"/><path class="v" d="M686.786,440.74a10.4,10.4,0,0,1-9.036,0l.067-.657.045-.494,8.812-.168.067.786Z" transform="translate(-339.613 -217.197)"/><path class="d" d="M694.25,434.51a13.634,13.634,0,0,1-.331,1.949,4.571,4.571,0,0,1-2.039-.208l.809-1.73a2.74,2.74,0,0,0,1.561-.011Z" transform="translate(-345.807 -215.044)"/><path class="d" d="M698.51,423.53a1.9,1.9,0,0,1-.247.489l-.067.1c-.185.275-.354.562-.511.848a2.946,2.946,0,0,0-.455.045l.64-1.365A4.348,4.348,0,0,1,698.51,423.53Z" transform="translate(-348.153 -210.231)"/><path class="d" d="M686.794,440.206c-1.561.837-7.419,1.078-8.924-.124l.045-.494,8.812-.168Z" transform="translate(-339.665 -217.197)"/><path class="k" d="M687.4,421.3l-.067.1a8.7,8.7,0,0,0-1.483,4.291c-.275,3.791-.837,4.167-.9,4.33-.455,1.151-8.318,1.6-9.5,0-.977-1.325-1.926-4.2-1.488-5.807a3.205,3.205,0,0,0-.764-2.527,1.949,1.949,0,0,1,.522-2.78c2.246-1.432,6.178-1.511,6.178-1.511a12.008,12.008,0,0,1,6.841,1.123l.168.1a1.938,1.938,0,0,1,.483,2.7Z" transform="translate(-337.457 -207.516)"/><ellipse class="d" cx="5.97" cy="1.41" rx="5.97" ry="1.41" transform="translate(336.666 212.013)"/><ellipse class="w" cx="5.97" cy="1.41" rx="5.97" ry="1.41" transform="translate(336.666 212.182)"/><path class="g" d="M684.745,422.47s-4.291.14-4.167,1.685A10.817,10.817,0,0,1,684.745,422.47Z" transform="translate(-340.851 -209.766)"/><path class="g" d="M688.437,423.17s-2.555,0-2.151,1.275c0,0,.6-.1.511-.421s1.64-.674,1.64-.674Z" transform="translate(-343.336 -210.073)"/><path class="x" d="M673.93,422.47s-.169,2.628,6.526,2.482,6.661-1.887,6.739-2.482h-.365s-.084,2.145-6.256,2.089-6.341-2.089-6.341-2.089Z" transform="translate(-337.938 -209.766)"/><path class="d" d="M695.618,420.851l-4.038,2.157a.382.382,0,0,1-.477-.1l-.067-.084a.5.5,0,0,1,.118-.73l3.7-2.342A1.9,1.9,0,0,1,695.618,420.851Z" transform="translate(-345.389 -208.574)"/><path class="u" d="M691.161,418.307l10.485-6.644a1.572,1.572,0,0,1,.786-.253c.528,0,1.275.084,1.039.932a1.583,1.583,0,0,1-.792.96L691.6,419.222a.382.382,0,0,1-.477-.1l-.068-.084a.506.506,0,0,1,.1-.736Z" transform="translate(-345.397 -204.918)"/><path class="d" d="M691.161,418.307l10.485-6.644a1.572,1.572,0,0,1,.786-.253c.528,0,1.275.084,1.039.932a1.583,1.583,0,0,1-.792.96L691.6,419.222a.382.382,0,0,1-.477-.1l-.068-.084a.506.506,0,0,1,.1-.736Z" transform="translate(-345.397 -204.918)"/><path class="u" d="M691.161,418.157l10.485-6.644a1.573,1.573,0,0,1,.786-.253c.528,0,1.275.084,1.039.932a1.583,1.583,0,0,1-.792.96L691.6,419.072a.387.387,0,0,1-.477-.1l-.068-.084a.506.506,0,0,1,.1-.736Z" transform="translate(-345.397 -204.852)"/><path class="d" d="M690.295,423.808s1.123-.241.972.056.483.668.483.668-1.157.275-1.331.107S690.295,423.808,690.295,423.808Z" transform="translate(-345.109 -210.312)"/><path class="w" d="M690.145,423.93s1.123-.236.972.056.483.674.483.674-1.157.275-1.331.107S690.145,423.93,690.145,423.93Z" transform="translate(-345.043 -210.367)"/><path class="y" d="M686.181,401.684a4.132,4.132,0,0,0-1,1.865,6.122,6.122,0,0,0,.062,1.943,10.887,10.887,0,0,0,.225,1.3c.062.247.225.517.343.348,0-.607-.129-1.2-.1-1.808a4.146,4.146,0,0,1,.562-1.786,9.016,9.016,0,0,0,.764-1.567c.084-.264.41-2.645-.039-2.246-.09.084-.2.865-.281,1.061A3.933,3.933,0,0,1,686.181,401.684Z" transform="translate(-342.849 -199.78)"/><path class="y" d="M687.34,409.628c.034.225.219.388.3.6a1.433,1.433,0,0,1,.073.41,3,3,0,0,1-.3,1.977,1.376,1.376,0,0,0,.753-1.017,3.473,3.473,0,0,0,.1-.685,6.413,6.413,0,0,0,0-.657c0-.331.1-1.191-.309-1.353S687.34,409.313,687.34,409.628Z" transform="translate(-343.817 -203.804)"/><path class="d" d="M674.921,428.74a2.516,2.516,0,0,0,1.926.865,3.69,3.69,0,0,1-2.027-.236Z" transform="translate(-338.328 -212.515)"/><path class="r" d="M369.753,341.08v27.07l-28.053.809v-27.07Z" transform="translate(-149.796 -149.527)"/><path class="d" d="M369.567,383.25l.146,4.2H341.661l-.051-2.578Z" transform="translate(-149.757 -168.013)"/><path class="r" d="M448.517,432.034l-43.637,1.617h0a4.274,4.274,0,0,1,4.274-4.274l35.107-1.617a4.274,4.274,0,0,1,4.274,4.274Z" transform="translate(-219.991 -212.085)"/><path class="r" d="M457.947,307.23l-154.674,4.852a2.707,2.707,0,0,1-2.713-2.707V216.439a2.707,2.707,0,0,1,2.713-2.707l154.674-4.852a2.707,2.707,0,0,1,2.713,2.707v92.908a2.707,2.707,0,0,1-2.713,2.735Z" transform="translate(-174.258 -116.132)"/><path class="f" d="M383.918,265.918,230.9,270.77V190.448l153.018-4.858Z" transform="translate(-101.223 -81.362)"/><ellipse class="e" cx="1.348" cy="1.331" rx="1.348" ry="1.331" transform="translate(204.568 99.825)"/><path class="d" d="M369.773,348.068l-27.963.809v-.528l27.963-.809Z" transform="translate(-149.844 -152.359)"/><path class="z" d="M384,188.1,230.88,192.957v-2.774L384,185.33Z" transform="translate(-101.214 -81.248)"/><path class="r" d="M80.72,378.45l1.488,2.69,48.428-10.266-1.915-3.044Z" transform="translate(-35.386 -161.253)"/><path class="r" d="M140.314,395.279l-7.329-43.5a1.387,1.387,0,0,1,1.219-1.612l55.6-5.931a1.387,1.387,0,0,1,1.522,1.2l5.2,38.1Z" transform="translate(-100.787 -175.465)"/><path class="d" d="M140.314,395.279l-7.329-43.5a1.387,1.387,0,0,1,1.219-1.612l55.6-5.931a1.387,1.387,0,0,1,1.522,1.2l5.2,38.1Z" transform="translate(-100.787 -175.465)"/><path class="r" d="M141.83,395.279l-7.335-43.5a1.393,1.393,0,0,1,1.224-1.612l55.6-5.931a1.387,1.387,0,0,1,1.522,1.2l5.2,38.1Z" transform="translate(-101.45 -175.465)"/><path class="f" d="M65.72,312.538l6.021,36.96,50.265-10.339-4.673-32.849Z" transform="translate(-28.811 -134.284)"/><path class="aa" d="M153.059,425.127l-.354-.708L146.05,425.9l16.955,25.9a2.185,2.185,0,0,0,2.443.9l59.531-17.3a2.19,2.19,0,0,0,.713-3.853L202.621,414.08l-4.813,1.123.208.494Z" transform="translate(-106.524 -206.088)"/><path class="d" d="M153.059,425.127l-.354-.708L146.05,425.9l16.955,25.9a2.185,2.185,0,0,0,2.443.9l59.531-17.3a2.19,2.19,0,0,0,.713-3.853L202.621,414.08l-4.813,1.123.208.494Z" transform="translate(-106.524 -206.088)"/><path class="aa" d="M154.579,425.127l-.354-.708L147.57,425.9l16.95,25.9a2.19,2.19,0,0,0,2.449.9L226.5,435.4a2.19,2.19,0,0,0,.713-3.853L204.141,414.08l-4.813,1.123.213.494Z" transform="translate(-107.19 -206.088)"/><path class="d" d="M207.118,448.752l19.129-4.97a.382.382,0,0,1,.343.084l8.5,7.711a.371.371,0,0,1-.146.629l-20.218,5.976a.376.376,0,0,1-.388-.118l-7.4-8.711a.376.376,0,0,1,.185-.6Z" transform="translate(-133.176 -219.104)"/><path class="s" d="M207.847,447.983l19.134-4.993a.371.371,0,0,1,.343.084l8.5,7.705a.371.371,0,0,1-.146.629l-20.218,5.976a.376.376,0,0,1-.388-.118l-7.408-8.66a.365.365,0,0,1,.185-.623Z" transform="translate(-133.483 -218.757)"/><g class="h" transform="translate(46.552 210.65)"><path d="M160.089,439.516l.859,1.387a.174.174,0,0,0,.174.073l2.9-.646a.168.168,0,0,0,.1-.258l-.96-1.337a.169.169,0,0,0-.168-.067l-2.808.6a.163.163,0,0,0-.1.247Z" transform="translate(-159.219 -427.516)"/><path d="M166.832,438.1l.859,1.387a.168.168,0,0,0,.18.073l2.9-.646a.168.168,0,0,0,.1-.258l-.96-1.337a.163.163,0,0,0-.168-.067l-2.808.6a.168.168,0,0,0-.1.247Z" transform="translate(-162.176 -426.893)"/><path d="M173.4,436.7l.859,1.382a.163.163,0,0,0,.174.073l2.9-.646a.168.168,0,0,0,.1-.258l-.96-1.309a.18.18,0,0,0-.169-.067l-2.808.6a.169.169,0,0,0-.1.225Z" transform="translate(-165.059 -426.293)"/><path d="M179.831,435.326l.848,1.365a.174.174,0,0,0,.185.079l2.875-.64a.18.18,0,0,0,.107-.275l-.944-1.32a.18.18,0,0,0-.185-.067l-2.774.6a.18.18,0,0,0-.112.264Z" transform="translate(-167.875 -425.673)"/><path d="M179.312,439.044l.859,1.382a.163.163,0,0,0,.18.073l2.9-.646a.163.163,0,0,0,.1-.253l-.96-1.342a.157.157,0,0,0-.169-.062l-2.808.6a.168.168,0,0,0-.1.247Z" transform="translate(-167.647 -427.308)"/><path d="M172.629,440.465l.859,1.382a.157.157,0,0,0,.174.073l2.9-.646a.168.168,0,0,0,.1-.258l-.96-1.337a.163.163,0,0,0-.168-.062l-2.808.6a.163.163,0,0,0-.1.247Z" transform="translate(-164.716 -427.931)"/><path d="M176.978,443.485l.859,1.387a.169.169,0,0,0,.174.073l2.9-.646a.168.168,0,0,0,.1-.258l-.96-1.337a.163.163,0,0,0-.168-.067l-2.808.6a.163.163,0,0,0-.09.247Z" transform="translate(-166.623 -429.256)"/><path d="M183.129,446.135l.859,1.382a.169.169,0,0,0,.174.079l2.9-.646a.168.168,0,0,0,.1-.258l-.96-1.337a.157.157,0,0,0-.168-.067l-2.808.6a.163.163,0,0,0-.1.247Z" transform="translate(-169.319 -430.417)"/><path d="M184.183,450.269l1.387,1.741a.168.168,0,0,0,.174.056l2.92-.758a.163.163,0,0,0,.084-.264l-1.432-1.752a.163.163,0,0,0-.168-.056l-2.875.775a.163.163,0,0,0-.09.258Z" transform="translate(-169.778 -432.148)"/><path d="M190.973,448.372l1.421,1.792a.174.174,0,0,0,.174.056l3.813-1.056a.163.163,0,0,0,.079-.264l-1.432-1.758a.168.168,0,0,0-.174-.056l-3.8,1.022a.168.168,0,0,0-.084.264Z" transform="translate(-172.754 -431.205)"/><path d="M177.541,451.921l1.387,1.741a.174.174,0,0,0,.174.056l2.92-.758a.163.163,0,0,0,.084-.264l-1.432-1.741a.157.157,0,0,0-.168-.051l-2.875.775a.163.163,0,0,0-.09.241Z" transform="translate(-166.87 -432.878)"/><path d="M170.509,453.735l1.387,1.735a.163.163,0,0,0,.169.056l2.92-.758a.168.168,0,0,0,.09-.264l-1.438-1.752a.163.163,0,0,0-.168-.056l-2.875.775a.163.163,0,0,0-.084.264Z" transform="translate(-163.781 -433.664)"/><path d="M186.277,433.753l.848,1.365a.174.174,0,0,0,.185.079l2.875-.64a.18.18,0,0,0,.107-.275l-.944-1.337a.174.174,0,0,0-.18-.067l-2.808.6a.174.174,0,0,0-.084.281Z" transform="translate(-170.693 -424.976)"/><path d="M185.875,437.546l.848,1.365a.174.174,0,0,0,.185.079l2.875-.64a.18.18,0,0,0,.107-.275l-.943-1.32a.174.174,0,0,0-.18-.067l-2.808.6a.174.174,0,0,0-.084.264Z" transform="translate(-170.521 -426.647)"/><path d="M192.559,432.326l.848,1.365a.18.18,0,0,0,.191.079l2.875-.64a.18.18,0,0,0,.1-.275l-.943-1.32a.174.174,0,0,0-.18-.067l-2.78.6a.174.174,0,0,0-.112.264Z" transform="translate(-173.453 -424.358)"/><path d="M210.893,428.348l1.2,1.269a.146.146,0,0,0,.135.039l2.567-.6a.14.14,0,0,0,.067-.242l-1.348-1.269a.135.135,0,0,0-.129-.034l-2.415.6a.146.146,0,0,0-.073.236Z" transform="translate(-181.487 -422.626)"/><path d="M216.758,427.009l1.191,1.269a.135.135,0,0,0,.135.039l2.567-.59a.14.14,0,0,0,.067-.241l-1.348-1.275a.152.152,0,0,0-.129-.034l-2.415.6a.14.14,0,0,0-.067.236Z" transform="translate(-184.055 -422.04)"/><path d="M211.035,432.04l1.2,1.269a.135.135,0,0,0,.135.045l2.572-.567a.14.14,0,0,0,.062-.241l-1.342-1.269a.146.146,0,0,0-.135-.039l-2.415.6a.14.14,0,0,0-.073.2Z" transform="translate(-181.556 -424.258)"/><path d="M204.961,433.4l1.123,1.213a.174.174,0,0,0,.169.051l2.482-.562a.18.18,0,0,0,.084-.3l-1.286-1.213a.174.174,0,0,0-.163-.039l-2.342.562a.18.18,0,0,0-.067.292Z" transform="translate(-178.88 -424.83)"/><path d="M209.571,440.211l1.123,1.213a.185.185,0,0,0,.168.051l2.482-.562a.174.174,0,0,0,.084-.3l-1.286-1.213a.191.191,0,0,0-.163-.045l-2.342.562a.18.18,0,0,0-.067.292Z" transform="translate(-180.901 -427.818)"/><path d="M203.29,441.617l1.123,1.213a.18.18,0,0,0,.168.051l2.482-.562a.174.174,0,0,0,.084-.3l-1.241-1.23a.18.18,0,0,0-.163-.045l-2.342.562a.174.174,0,0,0-.112.309Z" transform="translate(-178.141 -428.426)"/><path d="M196.958,443.2l1.123,1.213a.174.174,0,0,0,.169.051l2.488-.562a.18.18,0,0,0,.079-.3l-1.286-1.213a.168.168,0,0,0-.163-.039l-2.342.562a.174.174,0,0,0-.067.292Z" transform="translate(-175.37 -429.126)"/><path d="M190.2,444.553l1.157,1.23a.18.18,0,0,0,.157.045l2.51-.562a.163.163,0,0,0,.073-.281l-1.3-1.23a.163.163,0,0,0-.152-.039l-2.364.562a.163.163,0,0,0-.079.275Z" transform="translate(-172.41 -429.728)"/><path d="M203.231,437.691l1.123,1.213a.174.174,0,0,0,.163.051l2.488-.562a.174.174,0,0,0,.079-.3l-1.28-1.213a.191.191,0,0,0-.163-.045l-2.342.562a.18.18,0,0,0-.067.292Z" transform="translate(-178.122 -426.713)"/><path d="M197.121,439.109l1.123,1.207a.174.174,0,0,0,.168.056l2.482-.562a.174.174,0,0,0,.084-.3l-1.286-1.213a.163.163,0,0,0-.163-.045l-2.342.562a.18.18,0,0,0-.067.292Z" transform="translate(-175.443 -427.333)"/><path d="M190.563,440.489l1.123,1.213a.163.163,0,0,0,.163.051l2.488-.562a.18.18,0,0,0,.079-.3l-1.28-1.213a.174.174,0,0,0-.163-.039l-2.342.562a.169.169,0,0,0-.067.292Z" transform="translate(-172.564 -427.938)"/><path d="M183.866,442.063l1.157,1.23a.18.18,0,0,0,.157.045l2.51-.562a.163.163,0,0,0,.079-.281l-1.3-1.23a.18.18,0,0,0-.157-.039l-2.364.562a.169.169,0,0,0-.079.275Z" transform="translate(-169.635 -428.637)"/><path d="M209.538,436.21l1.123,1.213a.18.18,0,0,0,.168.051l2.482-.562a.174.174,0,0,0,.084-.3L212.11,435.4a.18.18,0,0,0-.163-.045l-2.342.562a.174.174,0,0,0-.067.292Z" transform="translate(-180.884 -426.064)"/><path d="M198.849,434.979l1.123,1.213a.186.186,0,0,0,.168.051l2.488-.562a.174.174,0,0,0,.079-.3l-1.286-1.213a.168.168,0,0,0-.163-.045l-2.336.562a.174.174,0,0,0-.073.292Z" transform="translate(-176.199 -425.523)"/><path d="M222.424,425.609l1.247,1.325a.118.118,0,0,0,.1.034l2.656-.618a.107.107,0,0,0,.045-.18l-1.41-1.325a.09.09,0,0,0-.1-.028l-2.494.618a.1.1,0,0,0-.051.174Z" transform="translate(-186.543 -421.443)"/><path d="M228.137,424.39l1.252,1.325a.107.107,0,0,0,.1.034l2.651-.618a.107.107,0,0,0,.051-.18l-1.41-1.331a.1.1,0,0,0-.1,0l-2.5.618a.1.1,0,0,0-.051.152Z" transform="translate(-189.054 -420.915)"/><path d="M233.986,423.09l1.123,1.23a.1.1,0,0,0,.1.034l2.477-.674a.112.112,0,0,0,.039-.185l-1.28-1.073a.1.1,0,0,0-.09,0l-2.336.517a.107.107,0,0,0-.034.152Z" transform="translate(-191.618 -420.39)"/><path d="M240.147,425.133l1.123,1.236a.112.112,0,0,0,.107.034l2.471-.674a.107.107,0,0,0,.039-.185l-1.275-1.073a.09.09,0,0,0-.09,0l-2.336.517a.1.1,0,0,0-.039.146Z" transform="translate(-194.319 -421.288)"/><path d="M239.39,429.082l1.084,1.168a.129.129,0,0,0,.14.039l2.381-.646a.146.146,0,0,0,.056-.247l-1.213-1.017a.118.118,0,0,0-.118-.034l-2.246.5a.14.14,0,0,0-.084.236Z" transform="translate(-193.978 -422.991)"/><path d="M234.38,434.157l1.084,1.174a.14.14,0,0,0,.14.039l2.381-.652a.14.14,0,0,0,.056-.241l-1.213-1.022a.129.129,0,0,0-.118-.028l-2.246.494a.14.14,0,0,0-.084.236Z" transform="translate(-191.782 -425.218)"/><path d="M228.36,435.732l1.084,1.168a.129.129,0,0,0,.14.039l2.381-.646a.146.146,0,0,0,.056-.247l-1.213-1.017a.118.118,0,0,0-.118-.034l-2.246.5a.14.14,0,0,0-.084.236Z" transform="translate(-189.143 -425.906)"/><path d="M240.054,432.675l1.084,1.174a.157.157,0,0,0,.14.039l2.381-.651a.14.14,0,0,0,.056-.247l-1.207-1.016a.163.163,0,0,0-.124-.034l-2.246.5a.146.146,0,0,0-.084.236Z" transform="translate(-194.271 -424.566)"/><path d="M239.058,436.977l1.634,1.471a.157.157,0,0,0,.135.028l2.364-.668a.14.14,0,0,0,.056-.241l-1.763-1.544a.141.141,0,0,0-.14-.028l-2.246.747a.135.135,0,0,0-.039.236Z" transform="translate(-193.826 -426.341)"/><path d="M228.895,427.972l1.123,1.236a.107.107,0,0,0,.107.028l2.471-.674a.1.1,0,0,0,.039-.18L231.36,427.3a.134.134,0,0,0-.09,0l-2.336.517a.1.1,0,0,0-.039.152Z" transform="translate(-189.385 -422.532)"/><path d="M223.194,429.335l1.084,1.168a.146.146,0,0,0,.14.045l2.381-.651a.146.146,0,0,0,.056-.247l-1.207-1.017a.163.163,0,0,0-.124-.034l-2.246.5a.146.146,0,0,0-.084.236Z" transform="translate(-186.88 -423.102)"/><path d="M222.014,433.354l1.1,1.157a.135.135,0,0,0,.14.039l2.387-.652a.14.14,0,0,0,.051-.242l-1.207-1.022a.14.14,0,0,0-.124-.028l-2.246.494a.146.146,0,0,0-.1.253Z" transform="translate(-186.357 -424.858)"/><path d="M216.034,434.817l1.084,1.174a.146.146,0,0,0,.146.039l2.381-.651a.14.14,0,0,0,.051-.241l-1.207-1.022a.14.14,0,0,0-.124-.028l-2.246.494a.146.146,0,0,0-.084.236Z" transform="translate(-183.741 -425.507)"/><path d="M217.1,430.682l1.084,1.174a.129.129,0,0,0,.14.039l2.381-.651a.14.14,0,0,0,.056-.241l-1.213-1.028a.129.129,0,0,0-.118-.028l-2.246.5a.135.135,0,0,0-.084.236Z" transform="translate(-184.205 -423.692)"/><path d="M222.12,437.087l1.084,1.174a.14.14,0,0,0,.14.039l2.381-.651a.14.14,0,0,0,.056-.242l-1.213-1.022a.129.129,0,0,0-.118-.028l-2.246.494a.14.14,0,0,0-.084.236Z" transform="translate(-186.407 -426.502)"/><path d="M216.234,438.655l1.033,1.123a.163.163,0,0,0,.174.051l2.3-.623a.18.18,0,0,0,.067-.309l-1.123-.966a.18.18,0,0,0-.152-.034l-2.179.477a.18.18,0,0,0-.118.281Z" transform="translate(-183.829 -427.177)"/><path d="M234.7,426.522l1.123,1.236a.107.107,0,0,0,.107.028l2.471-.674a.1.1,0,0,0,.039-.18l-1.275-1.078a.135.135,0,0,0-.09,0l-2.342.517a.107.107,0,0,0-.034.152Z" transform="translate(-191.929 -421.896)"/><path d="M233.874,430.427l1.084,1.174a.146.146,0,0,0,.14.039l2.387-.651a.14.14,0,0,0,.051-.241l-1.207-1.022a.14.14,0,0,0-.124-.028l-2.246.494a.146.146,0,0,0-.084.236Z" transform="translate(-191.562 -423.582)"/><path d="M228.109,432.014l1.078,1.168a.163.163,0,0,0,.146.045l2.381-.651a.146.146,0,0,0,.056-.247l-1.213-1.017a.163.163,0,0,0-.124-.034l-2.246.5a.14.14,0,0,0-.079.236Z" transform="translate(-189.032 -424.277)"/><path d="M204.908,429.658l1.191,1.269a.152.152,0,0,0,.135.039l2.567-.6a.14.14,0,0,0,.067-.241l-1.348-1.269a.135.135,0,0,0-.129-.034l-2.415.6a.14.14,0,0,0-.067.236Z" transform="translate(-178.86 -423.201)"/><path d="M198.788,431.129l1.123,1.213a.174.174,0,0,0,.169.051l2.482-.562a.18.18,0,0,0,.084-.3l-1.286-1.213a.174.174,0,0,0-.163-.039l-2.342.562a.174.174,0,0,0-.067.292Z" transform="translate(-176.172 -423.835)"/><path d="M192.279,436.192l.848,1.359a.168.168,0,0,0,.185.079l2.875-.64a.174.174,0,0,0,.107-.275l-.949-1.314a.18.18,0,0,0-.18-.073l-2.774.6a.18.18,0,0,0-.112.27Z" transform="translate(-173.33 -426.051)"/><path d="M158.689,437.255l2.836-.657a.174.174,0,0,1,.168.062l.5.657a.163.163,0,0,1-.1.258l-2.937.685a.163.163,0,0,1-.18-.079l-.4-.685a.163.163,0,0,1,.107-.241Z" transform="translate(-158.56 -426.608)"/><path d="M165.619,435.743l2.808-.657a.157.157,0,0,1,.168.062l.5.651a.168.168,0,0,1-.1.264l-2.937.685a.168.168,0,0,1-.18-.079l-.4-.685a.163.163,0,0,1,.135-.242Z" transform="translate(-161.587 -425.945)"/><path d="M172.349,434.3l2.836-.651a.163.163,0,0,1,.168.056l.5.657a.163.163,0,0,1-.1.258l-2.937.685a.157.157,0,0,1-.18-.073l-.4-.685a.168.168,0,0,1,.107-.247Z" transform="translate(-164.549 -425.313)"/><path d="M178.9,432.813l2.842-.657a.157.157,0,0,1,.168.062l.494.651a.168.168,0,0,1-.09.264l-2.943.68a.168.168,0,0,1-.18-.073l-.4-.685a.168.168,0,0,1,.107-.241Z" transform="translate(-167.422 -424.66)"/><path d="M185.526,431.339l2.808-.651a.186.186,0,0,1,.18.067l.483.635a.18.18,0,0,1-.1.281l-2.915.68a.174.174,0,0,1-.191-.084l-.388-.663a.18.18,0,0,1,.124-.264Z" transform="translate(-170.318 -424.017)"/><path d="M191.978,430l2.808-.651a.174.174,0,0,1,.18.062l.483.64a.174.174,0,0,1-.1.275l-2.915.68a.18.18,0,0,1-.191-.084l-.388-.663a.18.18,0,0,1,.124-.258Z" transform="translate(-173.147 -423.428)"/><path d="M198.3,428.7l2.6-.629a.174.174,0,0,1,.168.051l.505.528a.18.18,0,0,1-.084.292l-2.572.646a.168.168,0,0,1-.168-.045l-.562-.562a.18.18,0,0,1,.112-.281Z" transform="translate(-175.916 -422.867)"/><path d="M204.459,427.268l2.679-.651a.146.146,0,0,1,.14.039l.562.59a.135.135,0,0,1-.067.23l-2.645.668a.146.146,0,0,1-.135-.039l-.6-.6a.14.14,0,0,1,.062-.236Z" transform="translate(-178.636 -422.232)"/><path d="M210.616,425.827l2.679-.651a.124.124,0,0,1,.135.039l.562.562a.14.14,0,0,1-.067.236l-2.645.668a.146.146,0,0,1-.135-.039l-.562-.6a.14.14,0,0,1,.034-.213Z" transform="translate(-181.351 -421.599)"/><path d="M216.719,424.569l2.679-.651a.152.152,0,0,1,.135.039l.562.59a.146.146,0,0,1-.073.236l-2.623.663a.146.146,0,0,1-.135-.034l-.59-.6a.146.146,0,0,1,.045-.241Z" transform="translate(-184.016 -421.049)"/><path d="M222.529,423.165l2.758-.668a.1.1,0,0,1,.1.028l.618.646a.1.1,0,0,1-.051.174l-2.724.685a.1.1,0,0,1-.1-.028l-.651-.663a.107.107,0,0,1,.051-.174Z" transform="translate(-186.569 -420.426)"/><path d="M228.382,421.913l2.763-.674a.1.1,0,0,1,.1.034l.618.646a.1.1,0,0,1-.051.174l-2.724.7a.1.1,0,0,1-.1-.028l-.651-.663a.107.107,0,0,1,.051-.185Z" transform="translate(-189.131 -419.876)"/><path d="M234.212,420.66l2.555-.562a.112.112,0,0,1,.107.039l.494.607a.1.1,0,0,1-.056.163l-2.4.635a.1.1,0,0,1-.1-.028l-.651-.657a.107.107,0,0,1,.051-.2Z" transform="translate(-191.681 -419.376)"/><path d="M239.8,419.379l2.555-.562a.1.1,0,0,1,.107.034l.489.607a.107.107,0,0,1-.051.168l-2.4.635a.14.14,0,0,1-.107-.028l-.646-.663a.107.107,0,0,1,.051-.191Z" transform="translate(-194.133 -418.813)"/><path d="M162.307,442.668l.943,1.342a.157.157,0,0,0,.168.067l4.914-1.151a.163.163,0,0,0,.1-.258l-1.045-1.376a.163.163,0,0,0-.168-.056L162.4,442.41a.169.169,0,0,0-.1.258Z" transform="translate(-160.19 -428.641)"/><path d="M164.98,445.733l.938,1.494a.168.168,0,0,0,.18.073l5.936-1.41a.163.163,0,0,0,.09-.264l-1.174-1.455a.163.163,0,0,0-.168-.056l-5.7,1.37a.163.163,0,0,0-.1.247Z" transform="translate(-161.363 -429.903)"/><path d="M167.337,448.8l1.123,1.623a.163.163,0,0,0,.174.067l7.863-1.943a.168.168,0,0,0,.09-.264l-1.264-1.623a.174.174,0,0,0-.168-.062l-7.773,1.949a.163.163,0,0,0-.045.253Z" transform="translate(-162.39 -430.992)"/><path d="M199.388,443.748l1.438,1.735a.168.168,0,0,0,.174.056l17.3-4.319a.174.174,0,0,0,.079-.292l-1.763-1.758a.185.185,0,0,0-.168-.045l-16.972,4.341a.174.174,0,0,0-.09.281Z" transform="translate(-176.441 -427.716)"/><path d="M231.2,438.435l1.685,1.685a.146.146,0,0,0,.14.039l3.544-.949a.14.14,0,0,0,.062-.236l-1.758-1.724a.146.146,0,0,0-.135-.034l-3.476,1a.146.146,0,0,0-.062.219Z" transform="translate(-190.392 -426.879)"/><path d="M246.448,436.762l.775.814a.1.1,0,0,0,.1.028l2.623-.708a.1.1,0,0,0,.045-.174l-.932-.882a.112.112,0,0,0-.1,0l-2.465.769a.107.107,0,0,0-.045.152Z" transform="translate(-197.082 -426.272)"/><path d="M250.426,433.711l.921.966a.107.107,0,0,0,.112.028l2.409-.837a.1.1,0,0,0,.039-.174l-.921-.814a.1.1,0,0,0-.1,0l-2.432.68a.107.107,0,0,0-.034.152Z" transform="translate(-198.825 -424.974)"/><path d="M253.054,436.11l-.663-.562a.107.107,0,0,1,0-.18l2.4-.831a.1.1,0,0,1,.107,0l.753.724a.107.107,0,0,1-.051.18l-2.488.646A.1.1,0,0,1,253.054,436.11Z" transform="translate(-199.673 -425.699)"/><path d="M257.986,434c.208.2.562.6.708.73a.124.124,0,0,0,.107.028l2.5-.68a.107.107,0,0,0,.045-.18l-.887-.8a.106.106,0,0,0-.107,0l-2.319.747a.1.1,0,0,0-.045.152Z" transform="translate(-202.139 -425.069)"/><path d="M245.483,430.442l1.337,1.292a.1.1,0,0,0,.1.028l6.447-1.685a.107.107,0,0,0,.045-.18l-1.567-1.3a.1.1,0,0,0-.1,0l-6.223,1.685a.1.1,0,0,0-.045.157Z" transform="translate(-196.657 -423.098)"/><path d="M244.681,427.24l1.382,1.23a.112.112,0,0,0,.1,0l4.852-1.123a.107.107,0,0,0,.039-.185l-1.589-1.331a.09.09,0,0,0-.09,0l-4.645,1.213a.107.107,0,0,0-.045.2Z" transform="translate(-196.292 -421.884)"/><path d="M245.491,423.877l1.309,1.168a.1.1,0,0,0,.1,0l2.488-.562a.107.107,0,0,0,.045-.185l-1.55-1.309a.1.1,0,0,0-.1,0l-2.246.719a.107.107,0,0,0-.045.168Z" transform="translate(-196.658 -420.638)"/><path d="M239.408,421.542l1.264,1.151a.118.118,0,0,0,.1,0l3.931-.938a.1.1,0,0,0,.039-.18l-1.505-1.264a.123.123,0,0,0-.1,0l-3.712,1.05a.107.107,0,0,0-.017.18Z" transform="translate(-193.984 -419.466)"/></g><path class="r" d="M160.081,438.749l.859,1.382a.163.163,0,0,0,.174.073l2.9-.646a.168.168,0,0,0,.1-.258l-.96-1.354a.18.18,0,0,0-.168-.067l-2.808.6a.169.169,0,0,0-.1.27Z" transform="translate(-112.659 -216.52)"/><path class="r" d="M166.833,437.343l.859,1.382a.163.163,0,0,0,.18.073l2.9-.646a.168.168,0,0,0,.079-.247l-.96-1.337a.163.163,0,0,0-.169-.062l-2.808.6a.168.168,0,0,0-.079.236Z" transform="translate(-115.625 -215.918)"/><path class="r" d="M173.389,435.925l.859,1.382a.157.157,0,0,0,.174.073l2.9-.646a.163.163,0,0,0,.1-.253l-.96-1.342a.163.163,0,0,0-.168-.062l-2.808.6a.163.163,0,0,0-.1.247Z" transform="translate(-118.497 -215.291)"/><path class="r" d="M179.829,434.523l.848,1.359a.168.168,0,0,0,.185.079l2.875-.64a.174.174,0,0,0,.107-.275l-.944-1.314a.2.2,0,0,0-.185-.073l-2.774.6a.18.18,0,0,0-.112.27Z" transform="translate(-121.32 -214.67)"/><path class="r" d="M179.312,438.335l.859,1.387a.18.18,0,0,0,.18.073l2.9-.646a.168.168,0,0,0,.1-.258l-.96-1.337a.163.163,0,0,0-.168-.067l-2.808.6a.168.168,0,0,0-.1.247Z" transform="translate(-121.095 -216.348)"/><path class="r" d="M172.634,439.714l.859,1.382a.169.169,0,0,0,.174.079l2.9-.646a.168.168,0,0,0,.1-.258l-.96-1.325a.163.163,0,0,0-.168-.067l-2.808.6a.163.163,0,0,0-.1.236Z" transform="translate(-118.168 -216.957)"/><path class="r" d="M176.979,442.735l.859,1.382a.157.157,0,0,0,.174.073l2.9-.646a.168.168,0,0,0,.1-.258l-.96-1.337a.163.163,0,0,0-.168-.062l-2.808.6a.163.163,0,0,0-.1.247Z" transform="translate(-120.071 -218.276)"/><path class="r" d="M183.129,445.336l.859,1.387a.163.163,0,0,0,.174.073l2.9-.646a.168.168,0,0,0,.1-.258l-.96-1.337a.168.168,0,0,0-.168-.067l-2.808.6a.163.163,0,0,0-.1.247Z" transform="translate(-122.767 -219.417)"/><path class="r" d="M184.183,449.515l1.387,1.735a.168.168,0,0,0,.174.056l2.92-.758a.163.163,0,0,0,.084-.264l-1.432-1.752a.163.163,0,0,0-.168-.056l-2.876.775a.169.169,0,0,0-.09.264Z" transform="translate(-123.226 -221.164)"/><path class="r" d="M190.972,447.616l1.421,1.792a.174.174,0,0,0,.174.056l3.813-1.056a.163.163,0,0,0,.079-.264l-1.432-1.752a.169.169,0,0,0-.174-.056l-3.8,1.022a.163.163,0,0,0-.084.258Z" transform="translate(-126.201 -220.226)"/><path class="r" d="M177.533,451.185l1.387,1.735a.174.174,0,0,0,.174.056l2.92-.758a.163.163,0,0,0,.084-.264l-1.432-1.752a.163.163,0,0,0-.168-.056l-2.875.775a.168.168,0,0,0-.09.264Z" transform="translate(-120.31 -221.897)"/><path class="r" d="M170.512,452.979l1.387,1.741a.163.163,0,0,0,.168.056l2.92-.758a.168.168,0,0,0,.09-.264L173.641,452a.163.163,0,0,0-.169-.056l-2.875.775a.163.163,0,0,0-.084.258Z" transform="translate(-117.232 -222.686)"/><path class="r" d="M186.288,433.006l.848,1.365a.174.174,0,0,0,.185.079l2.875-.64a.18.18,0,0,0,.107-.275l-.944-1.32a.174.174,0,0,0-.18-.067l-2.808.6a.18.18,0,0,0-.084.264Z" transform="translate(-124.151 -214.006)"/><path class="r" d="M185.878,436.787l.848,1.365a.174.174,0,0,0,.185.079l2.875-.64a.174.174,0,0,0,.107-.275L188.95,436a.18.18,0,0,0-.18-.073l-2.808.6a.18.18,0,0,0-.084.264Z" transform="translate(-123.971 -215.664)"/><path class="r" d="M192.561,431.587l.848,1.365a.18.18,0,0,0,.191.079l2.875-.64a.18.18,0,0,0,.1-.275l-.944-1.314a.18.18,0,0,0-.18-.073l-2.78.6a.18.18,0,0,0-.112.264Z" transform="translate(-126.903 -213.385)"/><path class="r" d="M210.893,427.608l1.2,1.269a.135.135,0,0,0,.135.039l2.567-.6a.14.14,0,0,0,.067-.236l-1.348-1.275a.135.135,0,0,0-.129-.034l-2.415.6a.146.146,0,0,0-.073.236Z" transform="translate(-134.934 -211.652)"/><path class="r" d="M216.758,426.258l1.191,1.264a.14.14,0,0,0,.135.045l2.567-.6a.14.14,0,0,0,.067-.241l-1.348-1.269a.135.135,0,0,0-.129-.034l-2.415.6a.14.14,0,0,0-.067.236Z" transform="translate(-137.503 -211.06)"/><path class="r" d="M211.022,431.268l1.2,1.269a.146.146,0,0,0,.135.039l2.567-.6a.14.14,0,0,0,.062-.241l-1.342-1.269a.146.146,0,0,0-.135-.034l-2.415.6a.146.146,0,0,0-.067.236Z" transform="translate(-134.99 -213.257)"/><path class="r" d="M204.958,432.644l1.123,1.207a.163.163,0,0,0,.168.051l2.482-.562a.174.174,0,0,0,.084-.3l-1.286-1.213a.163.163,0,0,0-.163-.045l-2.342.562a.18.18,0,0,0-.067.3Z" transform="translate(-132.325 -213.847)"/><path class="r" d="M209.568,439.449l1.123,1.213a.174.174,0,0,0,.169.05l2.482-.562a.18.18,0,0,0,.084-.3l-1.286-1.213a.174.174,0,0,0-.163-.039l-2.342.562a.174.174,0,0,0-.067.292Z" transform="translate(-134.345 -216.833)"/><path class="r" d="M203.3,440.86l1.123,1.213a.168.168,0,0,0,.169.051l2.482-.562a.18.18,0,0,0,.084-.3l-1.241-1.224a.174.174,0,0,0-.163-.039l-2.342.562a.174.174,0,0,0-.112.3Z" transform="translate(-131.594 -217.446)"/><path class="r" d="M196.961,442.45l1.123,1.213a.185.185,0,0,0,.168.051l2.488-.562a.174.174,0,0,0,.079-.3l-1.286-1.213a.174.174,0,0,0-.163-.045l-2.342.562a.18.18,0,0,0-.067.292Z" transform="translate(-128.821 -218.149)"/><path class="r" d="M190.184,443.777l1.157,1.23a.163.163,0,0,0,.157.045l2.51-.562a.163.163,0,0,0,.073-.281l-1.3-1.247a.168.168,0,0,0-.152-.045l-2.364.562a.163.163,0,0,0-.079.3Z" transform="translate(-125.839 -218.729)"/><path class="r" d="M203.231,436.929l1.123,1.213a.163.163,0,0,0,.163.051l2.488-.562a.18.18,0,0,0,.079-.3l-1.28-1.213a.174.174,0,0,0-.163-.039l-2.342.562a.18.18,0,0,0-.067.292Z" transform="translate(-131.569 -215.728)"/><path class="r" d="M197.121,438.331l1.123,1.213a.185.185,0,0,0,.168.051l2.482-.562a.174.174,0,0,0,.084-.3l-1.286-1.213a.191.191,0,0,0-.163-.045l-2.342.562a.18.18,0,0,0-.067.292Z" transform="translate(-128.891 -216.344)"/><path class="r" d="M190.568,439.74l1.123,1.213a.174.174,0,0,0,.163.051l2.488-.562a.174.174,0,0,0,.079-.3l-1.28-1.213a.18.18,0,0,0-.163-.045l-2.342.562a.174.174,0,0,0-.067.292Z" transform="translate(-126.016 -216.961)"/><path class="r" d="M183.863,441.34l1.157,1.23a.152.152,0,0,0,.157.045l2.51-.562a.163.163,0,0,0,.079-.281l-1.3-1.23a.18.18,0,0,0-.157-.045l-2.364.562a.169.169,0,0,0-.079.281Z" transform="translate(-123.079 -217.668)"/><path class="r" d="M209.538,435.451l1.123,1.213a.18.18,0,0,0,.168.051l2.482-.562a.174.174,0,0,0,.084-.3l-1.286-1.213a.191.191,0,0,0-.163-.045l-2.342.562a.174.174,0,0,0-.067.292Z" transform="translate(-134.332 -215.081)"/><path class="r" d="M198.853,434.218l1.123,1.213a.174.174,0,0,0,.168.051l2.488-.562a.18.18,0,0,0,.079-.3l-1.286-1.213a.169.169,0,0,0-.163-.039l-2.336.562a.18.18,0,0,0-.073.292Z" transform="translate(-129.65 -214.539)"/><path class="r" d="M222.429,424.851l1.247,1.331a.1.1,0,0,0,.1.028l2.656-.612a.107.107,0,0,0,.045-.18l-1.41-1.331a.118.118,0,0,0-.1-.028l-2.494.618a.107.107,0,0,0-.051.174Z" transform="translate(-139.995 -210.462)"/><path class="r" d="M228.124,423.59l1.252,1.331a.107.107,0,0,0,.1.028l2.651-.612a.107.107,0,0,0,.051-.18l-1.41-1.331a.1.1,0,0,0-.1-.028l-2.5.618a.1.1,0,0,0-.051.174Z" transform="translate(-142.489 -209.909)"/><path class="r" d="M233.986,422.33l1.123,1.236a.1.1,0,0,0,.1.028l2.477-.674a.107.107,0,0,0,.039-.18l-1.28-1.078a.1.1,0,0,0-.09,0l-2.336.517a.107.107,0,0,0-.034.152Z" transform="translate(-145.065 -209.407)"/><path class="r" d="M240.147,424.381l1.123,1.236a.107.107,0,0,0,.107.028l2.471-.674a.1.1,0,0,0,.039-.18l-1.275-1.078a.107.107,0,0,0-.09,0l-2.336.517a.107.107,0,0,0-.039.152Z" transform="translate(-147.767 -210.306)"/><path class="r" d="M239.407,428.341l1.084,1.174a.14.14,0,0,0,.14.039l2.381-.652a.14.14,0,0,0,.056-.241l-1.213-1.022a.129.129,0,0,0-.118,0l-2.246.494a.146.146,0,0,0-.084.208Z" transform="translate(-147.442 -212.026)"/><path class="r" d="M234.379,433.427l1.084,1.174a.129.129,0,0,0,.14.039l2.381-.646a.146.146,0,0,0,.056-.247l-1.213-1.022a.129.129,0,0,0-.118-.028l-2.246.5a.135.135,0,0,0-.084.23Z" transform="translate(-145.228 -214.248)"/><path class="r" d="M228.364,434.977l1.084,1.174a.157.157,0,0,0,.14.039l2.381-.652a.146.146,0,0,0,.056-.247l-1.213-1.017a.129.129,0,0,0-.118-.028l-2.246.494a.146.146,0,0,0-.084.236Z" transform="translate(-142.594 -214.927)"/><path class="r" d="M240.053,431.917l1.084,1.174a.129.129,0,0,0,.14.039l2.381-.651a.14.14,0,0,0,.056-.242l-1.207-1.022a.14.14,0,0,0-.124-.028l-2.246.5a.14.14,0,0,0-.084.23Z" transform="translate(-147.718 -213.586)"/><path class="r" d="M239.059,436.222l1.634,1.466a.129.129,0,0,0,.135.028l2.364-.668a.14.14,0,0,0,.056-.242l-1.763-1.544a.14.14,0,0,0-.14-.028l-2.246.747a.14.14,0,0,0-.039.242Z" transform="translate(-147.274 -215.358)"/><path class="r" d="M228.9,427.214l1.123,1.236a.112.112,0,0,0,.107.034l2.471-.674a.107.107,0,0,0,.039-.185l-1.275-1.073a.1.1,0,0,0-.09,0l-2.336.517a.1.1,0,0,0-.039.146Z" transform="translate(-142.835 -211.55)"/><path class="r" d="M223.207,428.591l1.084,1.174a.14.14,0,0,0,.14.039l2.381-.651a.14.14,0,0,0,.056-.241l-1.207-1.022a.14.14,0,0,0-.124,0l-2.246.494a.146.146,0,0,0-.084.208Z" transform="translate(-140.34 -212.135)"/><path class="r" d="M222.02,432.612l1.084,1.168a.135.135,0,0,0,.14.039l2.387-.646a.146.146,0,0,0,.051-.247l-1.207-1.017a.129.129,0,0,0-.124-.034l-2.246.5a.14.14,0,0,0-.084.236Z" transform="translate(-139.811 -213.888)"/><path class="r" d="M216.034,434.063l1.084,1.168a.146.146,0,0,0,.146.039l2.381-.646a.146.146,0,0,0,.051-.247l-1.207-1.022a.14.14,0,0,0-.124-.028l-2.246.5a.146.146,0,0,0-.084.236Z" transform="translate(-137.189 -214.524)"/><path class="r" d="M217.11,429.935l1.084,1.168a.146.146,0,0,0,.14.045l2.381-.651a.146.146,0,0,0,.056-.247l-1.213-1.017a.152.152,0,0,0-.118-.034l-2.246.5a.14.14,0,0,0-.084.236Z" transform="translate(-137.658 -212.715)"/><path class="r" d="M222.134,436.341l1.084,1.174a.129.129,0,0,0,.14.039l2.381-.646a.146.146,0,0,0,.056-.247l-1.213-1.022a.129.129,0,0,0-.118,0l-2.246.5a.135.135,0,0,0-.084.2Z" transform="translate(-139.869 -215.533)"/><path class="r" d="M216.234,437.9l1.033,1.123a.174.174,0,0,0,.174.051l2.3-.629a.174.174,0,0,0,.067-.3l-1.123-.966a.163.163,0,0,0-.152-.039l-2.179.483a.18.18,0,0,0-.118.281Z" transform="translate(-137.277 -216.193)"/><path class="r" d="M234.694,425.77l1.123,1.23a.112.112,0,0,0,.107.034l2.471-.674a.107.107,0,0,0,.039-.185l-1.275-1.073a.1.1,0,0,0-.09,0l-2.342.517a.1.1,0,0,0-.034.152Z" transform="translate(-145.374 -210.915)"/><path class="r" d="M233.873,429.677l1.084,1.174a.135.135,0,0,0,.14.039l2.387-.646a.146.146,0,0,0,.051-.247l-1.207-1.022a.14.14,0,0,0-.124-.028l-2.246.5a.14.14,0,0,0-.084.23Z" transform="translate(-145.009 -212.604)"/><path class="r" d="M228.109,431.257l1.078,1.174a.157.157,0,0,0,.146.039l2.381-.651a.14.14,0,0,0,.056-.241l-1.213-1.022a.141.141,0,0,0-.124-.028l-2.246.494a.14.14,0,0,0-.079.236Z" transform="translate(-142.48 -213.296)"/><path class="r" d="M204.907,428.9l1.191,1.269a.14.14,0,0,0,.135.045l2.567-.6a.14.14,0,0,0,.067-.242l-1.348-1.269a.141.141,0,0,0-.129-.039l-2.415.6a.135.135,0,0,0-.067.23Z" transform="translate(-132.307 -212.219)"/><path class="r" d="M198.791,430.379l1.123,1.207a.174.174,0,0,0,.169.056l2.482-.562a.174.174,0,0,0,.084-.3l-1.286-1.213a.163.163,0,0,0-.163-.045l-2.342.562a.18.18,0,0,0-.067.292Z" transform="translate(-129.623 -212.856)"/><path class="r" d="M192.279,435.435l.848,1.365a.174.174,0,0,0,.185.079l2.875-.64a.18.18,0,0,0,.107-.275l-.949-1.32a.168.168,0,0,0-.18-.067l-2.774.6a.174.174,0,0,0-.112.264Z" transform="translate(-126.778 -215.071)"/><path class="r" d="M158.689,436.485l2.836-.657a.174.174,0,0,1,.169.062l.5.657a.163.163,0,0,1-.1.258l-2.937.685a.157.157,0,0,1-.18-.079l-.4-.68a.168.168,0,0,1,.107-.247Z" transform="translate(-112.008 -215.621)"/><path class="r" d="M165.619,434.985l2.808-.657a.174.174,0,0,1,.168.062l.5.657a.163.163,0,0,1-.1.258l-2.937.685a.163.163,0,0,1-.18-.079l-.4-.685a.163.163,0,0,1,.135-.241Z" transform="translate(-115.034 -214.963)"/><path class="r" d="M172.349,433.544l2.836-.657a.163.163,0,0,1,.168.062l.5.651a.168.168,0,0,1-.1.264l-2.937.685a.163.163,0,0,1-.18-.079l-.4-.685a.163.163,0,0,1,.107-.241Z" transform="translate(-117.996 -214.331)"/><path class="r" d="M178.877,432.055l2.808-.657a.174.174,0,0,1,.168.062l.494.657a.163.163,0,0,1-.09.258l-2.943.685a.168.168,0,0,1-.18-.079l-.4-.685a.168.168,0,0,1,.14-.241Z" transform="translate(-120.846 -213.678)"/><path class="r" d="M185.526,430.588l2.808-.651a.185.185,0,0,1,.18.062l.483.64a.174.174,0,0,1-.1.275l-2.915.68a.174.174,0,0,1-.191-.084l-.388-.663a.174.174,0,0,1,.124-.258Z" transform="translate(-123.765 -213.038)"/><path class="r" d="M191.978,429.238l2.808-.651a.174.174,0,0,1,.18.067l.483.635a.174.174,0,0,1-.1.275l-2.915.68a.18.18,0,0,1-.191-.084l-.388-.663a.18.18,0,0,1,.124-.258Z" transform="translate(-126.595 -212.446)"/><path class="r" d="M198.3,427.942l2.6-.635a.185.185,0,0,1,.168.051l.505.562a.18.18,0,0,1-.084.292l-2.572.607a.168.168,0,0,1-.168-.045l-.562-.562a.174.174,0,0,1,.112-.27Z" transform="translate(-129.366 -211.885)"/><path class="r" d="M204.459,426.489l2.679-.651a.163.163,0,0,1,.14.039l.562.59a.14.14,0,0,1-.067.236l-2.645.663a.135.135,0,0,1-.135-.039l-.6-.6a.14.14,0,0,1,.062-.236Z" transform="translate(-132.084 -211.241)"/><path class="r" d="M210.6,425.069l2.679-.651a.151.151,0,0,1,.135.039l.562.59a.14.14,0,0,1-.067.236l-2.645.663a.135.135,0,0,1-.135-.039l-.562-.6a.14.14,0,0,1,.034-.236Z" transform="translate(-134.787 -210.619)"/><path class="r" d="M216.719,423.818l2.679-.651a.135.135,0,0,1,.135.039l.562.59a.14.14,0,0,1-.073.23l-2.623.668a.152.152,0,0,1-.135-.039l-.59-.6a.14.14,0,0,1,.045-.236Z" transform="translate(-137.464 -210.069)"/><path class="r" d="M222.529,422.41l2.758-.674a.1.1,0,0,1,.1.028l.618.651a.107.107,0,0,1-.051.174l-2.724.685a.124.124,0,0,1-.1-.028l-.651-.663a.107.107,0,0,1,.051-.174Z" transform="translate(-140.017 -209.443)"/><path class="r" d="M228.386,421.155l2.763-.668a.09.09,0,0,1,.1.028l.618.646a.107.107,0,0,1-.051.18l-2.724.68a.1.1,0,0,1-.1-.028l-.651-.657a.107.107,0,0,1,.051-.18Z" transform="translate(-142.582 -208.895)"/><path class="r" d="M234.217,419.9l2.555-.562a.1.1,0,0,1,.107.034l.494.607a.107.107,0,0,1-.056.168l-2.4.635a.124.124,0,0,1-.1-.028l-.651-.663a.107.107,0,0,1,.051-.191Z" transform="translate(-145.134 -208.391)"/><path class="r" d="M239.792,418.62l2.555-.562a.112.112,0,0,1,.107.034l.489.607a.1.1,0,0,1-.051.169l-2.4.635a.107.107,0,0,1-.107-.028l-.646-.657a.107.107,0,0,1,.051-.2Z" transform="translate(-147.575 -207.831)"/><path class="r" d="M162.307,441.879l.943,1.342a.157.157,0,0,0,.168.067l4.914-1.151a.163.163,0,0,0,.1-.258l-1.045-1.37a.163.163,0,0,0-.168-.062l-4.813,1.179a.163.163,0,0,0-.1.253Z" transform="translate(-113.637 -217.645)"/><path class="r" d="M164.98,444.974l.938,1.5a.174.174,0,0,0,.18.073l5.936-1.415a.163.163,0,0,0,.09-.264l-1.174-1.455a.174.174,0,0,0-.168-.056l-5.7,1.37a.163.163,0,0,0-.1.247Z" transform="translate(-114.811 -218.921)"/><path class="r" d="M167.337,448.047l1.123,1.623a.163.163,0,0,0,.174.062l7.863-1.943a.163.163,0,0,0,.09-.258l-1.264-1.629a.163.163,0,0,0-.168-.056l-7.773,1.943a.169.169,0,0,0-.045.258Z" transform="translate(-115.837 -220.012)"/><path class="r" d="M199.388,443l1.438,1.73a.168.168,0,0,0,.174.056l17.3-4.313a.18.18,0,0,0,.079-.3l-1.763-1.752a.169.169,0,0,0-.168-.045l-16.972,4.336a.18.18,0,0,0-.09.286Z" transform="translate(-129.889 -216.736)"/><path class="r" d="M231.174,437.681l1.685,1.685a.146.146,0,0,0,.14.034l3.544-.949a.14.14,0,0,0,.062-.236l-1.758-1.719a.135.135,0,0,0-.135-.039l-3.488.966a.146.146,0,0,0-.051.258Z" transform="translate(-143.815 -215.896)"/><path class="r" d="M246.438,435.991l.775.814a.1.1,0,0,0,.1.028l2.623-.7a.107.107,0,0,0,.045-.18l-.932-.876a.1.1,0,0,0-.1-.028l-2.465.769a.107.107,0,0,0-.045.174Z" transform="translate(-150.519 -215.278)"/><path class="r" d="M250.426,432.96l.921.966a.1.1,0,0,0,.112,0l2.409-.831a.107.107,0,0,0,.039-.18l-.921-.786a.084.084,0,0,0-.1,0l-2.432.68a.107.107,0,0,0-.034.152Z" transform="translate(-152.272 -213.994)"/><path class="r" d="M253.051,435.369l-.663-.534a.107.107,0,0,1,0-.185l2.4-.831a.107.107,0,0,1,.107,0l.753.73a.107.107,0,0,1-.051.174l-2.488.646a.1.1,0,0,1-.062,0Z" transform="translate(-153.117 -214.735)"/><path class="r" d="M257.988,433.289c.208.2.562.6.708.73a.107.107,0,0,0,.107.028l2.5-.674a.107.107,0,0,0,.045-.18l-.887-.8a.118.118,0,0,0-.107,0l-2.319.747a.107.107,0,0,0-.045.152Z" transform="translate(-155.589 -214.109)"/><path class="r" d="M245.471,429.672l1.337,1.292a.112.112,0,0,0,.1,0l6.447-1.685a.107.107,0,0,0,.045-.185l-1.567-1.292a.118.118,0,0,0-.1,0l-6.223,1.685a.107.107,0,0,0-.045.185Z" transform="translate(-150.091 -212.099)"/><path class="r" d="M244.706,426.485l1.382,1.23a.1.1,0,0,0,.1,0l4.852-1.123a.1.1,0,0,0,.039-.18l-1.589-1.331a.09.09,0,0,0-.09,0l-4.645,1.247a.107.107,0,0,0-.045.157Z" transform="translate(-149.765 -210.905)"/><path class="r" d="M245.479,423.1l1.309,1.174a.118.118,0,0,0,.1,0l2.488-.562a.1.1,0,0,0,.045-.18l-1.55-1.337a.084.084,0,0,0-.1,0l-2.246.724a.1.1,0,0,0-.045.18Z" transform="translate(-150.095 -209.641)"/><path class="r" d="M239.4,420.781l1.264,1.151a.1.1,0,0,0,.1,0l3.931-.932a.107.107,0,0,0,.039-.185l-1.505-1.264a.1.1,0,0,0-.1,0l-3.712,1.045a.107.107,0,0,0-.017.185Z" transform="translate(-147.428 -208.481)"/></g></svg>