<svg xmlns="http://www.w3.org/2000/svg" width="25.201" height="25.202" viewBox="0 0 25.201 25.202"><defs><style>.a{fill:#cfcfcf;}</style></defs><path class="a" d="M16.8,12.6a4.2,4.2,0,1,0-4.2,4.2,4.2,4.2,0,0,0,4.2-4.2m2.271,0A6.47,6.47,0,1,1,12.6,6.131,6.47,6.47,0,0,1,19.071,12.6M7.386,5.874A1.512,1.512,0,1,1,5.873,4.362h0A1.513,1.513,0,0,1,7.386,5.874M17.691,22.858a6.965,6.965,0,0,0,2.34-.433,4.172,4.172,0,0,0,2.392-2.391,6.958,6.958,0,0,0,.433-2.34c.061-1.328.073-1.727.073-5.092s-.013-3.763-.073-5.092a7.011,7.011,0,0,0-.433-2.34,3.916,3.916,0,0,0-.943-1.449,3.884,3.884,0,0,0-1.449-.943,6.958,6.958,0,0,0-2.34-.433c-1.328-.061-1.727-.073-5.091-.073s-3.763.013-5.092.073a7.011,7.011,0,0,0-2.34.433,3.9,3.9,0,0,0-1.449.943,3.9,3.9,0,0,0-.943,1.449,6.958,6.958,0,0,0-.433,2.34c-.061,1.329-.073,1.727-.073,5.092s.012,3.763.073,5.092a6.991,6.991,0,0,0,.433,2.34,3.9,3.9,0,0,0,.943,1.448,3.916,3.916,0,0,0,1.449.943,6.958,6.958,0,0,0,2.34.433c1.328.061,1.727.073,5.092.073s3.763-.012,5.091-.073M17.8.076a9.24,9.24,0,0,1,3.059.585,6.181,6.181,0,0,1,2.232,1.453A6.157,6.157,0,0,1,24.54,4.347a9.243,9.243,0,0,1,.585,3.059c.062,1.344.076,1.773.076,5.2s-.014,3.852-.076,5.2a9.242,9.242,0,0,1-.585,3.059,6.443,6.443,0,0,1-3.686,3.686,9.248,9.248,0,0,1-3.059.585c-1.344.061-1.773.076-5.2.076s-3.852-.014-5.2-.076a9.242,9.242,0,0,1-3.059-.585,6.2,6.2,0,0,1-2.232-1.453A6.173,6.173,0,0,1,.661,20.855,9.217,9.217,0,0,1,.075,17.8C.014,16.452,0,16.023,0,12.6s.014-3.852.075-5.2A9.239,9.239,0,0,1,.661,4.347,6.2,6.2,0,0,1,2.114,2.115,6.166,6.166,0,0,1,4.345.662,9.228,9.228,0,0,1,7.4.076C8.747.015,9.177,0,12.6,0s3.852.014,5.2.076"/><path class="a" d="M16.8,12.6a4.2,4.2,0,1,0-4.2,4.2,4.2,4.2,0,0,0,4.2-4.2m2.271,0A6.47,6.47,0,1,1,12.6,6.131,6.47,6.47,0,0,1,19.071,12.6M7.386,5.874A1.512,1.512,0,1,1,5.873,4.362h0A1.513,1.513,0,0,1,7.386,5.874M17.691,22.858a6.965,6.965,0,0,0,2.34-.433,4.172,4.172,0,0,0,2.392-2.391,6.958,6.958,0,0,0,.433-2.34c.061-1.328.073-1.727.073-5.092s-.013-3.763-.073-5.092a7.011,7.011,0,0,0-.433-2.34,3.916,3.916,0,0,0-.943-1.449,3.884,3.884,0,0,0-1.449-.943,6.958,6.958,0,0,0-2.34-.433c-1.328-.061-1.727-.073-5.091-.073s-3.763.013-5.092.073a7.011,7.011,0,0,0-2.34.433,3.9,3.9,0,0,0-1.449.943,3.9,3.9,0,0,0-.943,1.449,6.958,6.958,0,0,0-.433,2.34c-.061,1.329-.073,1.727-.073,5.092s.012,3.763.073,5.092a6.991,6.991,0,0,0,.433,2.34,3.9,3.9,0,0,0,.943,1.448,3.916,3.916,0,0,0,1.449.943,6.958,6.958,0,0,0,2.34.433c1.328.061,1.727.073,5.092.073s3.763-.012,5.091-.073M17.8.076a9.24,9.24,0,0,1,3.059.585,6.181,6.181,0,0,1,2.232,1.453A6.157,6.157,0,0,1,24.54,4.347a9.243,9.243,0,0,1,.585,3.059c.062,1.344.076,1.773.076,5.2s-.014,3.852-.076,5.2a9.242,9.242,0,0,1-.585,3.059,6.443,6.443,0,0,1-3.686,3.686,9.248,9.248,0,0,1-3.059.585c-1.344.061-1.773.076-5.2.076s-3.852-.014-5.2-.076a9.242,9.242,0,0,1-3.059-.585,6.2,6.2,0,0,1-2.232-1.453A6.173,6.173,0,0,1,.661,20.855,9.217,9.217,0,0,1,.075,17.8C.014,16.452,0,16.023,0,12.6s.014-3.852.075-5.2A9.239,9.239,0,0,1,.661,4.347,6.2,6.2,0,0,1,2.114,2.115,6.166,6.166,0,0,1,4.345.662,9.228,9.228,0,0,1,7.4.076C8.747.015,9.177,0,12.6,0s3.852.014,5.2.076"/></svg>