<svg xmlns="http://www.w3.org/2000/svg" width="26.193" height="25.03" viewBox="0 0 26.193 25.03"><defs><style>.a{fill:#cfcfcf;}</style></defs><path class="a" d="M0,7.908A2.723,2.723,0,0,1,.885,5.822,3.246,3.246,0,0,1,3.186,5a3.15,3.15,0,0,1,2.25.809,2.852,2.852,0,0,1,.885,2.174,2.662,2.662,0,0,1-.86,2.023,3.252,3.252,0,0,1-2.326.834H3.11a3.094,3.094,0,0,1-2.25-.834A2.8,2.8,0,0,1,0,7.908ZM.329,30.03V13.141H5.942V30.03Zm8.723,0h5.613V20.6a3.291,3.291,0,0,1,1.277-2.819,2.747,2.747,0,0,1,1.808-.594q2.832,0,2.832,3.818V30.03h5.613V20.347a8.137,8.137,0,0,0-1.77-5.676,6.037,6.037,0,0,0-4.677-1.934,5.738,5.738,0,0,0-5.082,2.806v.051h-.025l.025-.051v-2.4H9.051q.051.809.051,5.031T9.051,30.03Z" transform="translate(0 -5)"/></svg>