<svg xmlns="http://www.w3.org/2000/svg" width="27.137" height="20.707" viewBox="0 0 27.137 20.707"><defs><style>.a{fill:#cfcfcf;stroke:#fffbfb;stroke-width:0.5px;}</style></defs><g transform="translate(0.25 0.25)"><path class="a" d="M17.8,0V0h1.249L19.5.085A5.153,5.153,0,0,1,20.332.3a6.1,6.1,0,0,1,.721.314,6.95,6.95,0,0,1,.632.366,3.842,3.842,0,0,1,.5.39.738.738,0,0,0,.689.108,9.721,9.721,0,0,0,1.009-.28q.54-.179,1.069-.4T25.6.511l.12-.067,0-.007.024-.011.024-.011L25.8.4,25.82.392l0-.007.007,0,.007,0,0-.007.024-.007.024,0,0,.034L25.88.426,25.868.46l-.012.034-.012.022-.012.022L25.82.572a.738.738,0,0,0-.024.09,3.651,3.651,0,0,1-.228.449,5.572,5.572,0,0,1-.54.8,4.02,4.02,0,0,1-.581.61q-.259.209-.343.292a1.019,1.019,0,0,1-.2.157l-.12.074-.024.011-.024.011,0,.007-.007,0-.007,0,0,.007-.024.011-.024.011,0,.007-.007,0-.007,0,0,.007,0,.007-.007,0-.007,0,0,.007h.12l.673-.135a12.719,12.719,0,0,0,1.285-.325l.649-.2.072-.022.036-.011.024-.011.024-.011.024-.011.024-.011.048-.007.048,0v.045l-.012,0-.012.007,0,.007-.007,0-.007,0,0,.007,0,.007-.007,0-.007,0,0,.007,0,.007-.007,0-.012.022-.012.022-.007,0-.305.381a3.206,3.206,0,0,1-.324.381q-.024.007-.067.067a6.63,6.63,0,0,1-.509.5,11.838,11.838,0,0,1-.918.778,1.04,1.04,0,0,0-.456.843q-.007.5-.055,1.126A13.355,13.355,0,0,1,23.707,8,15.273,15.273,0,0,1,23.3,9.644a14.332,14.332,0,0,1-.673,1.794,13.621,13.621,0,0,1-.829,1.57q-.432.7-.793,1.177t-.733.908q-.372.426-.942.96t-.624.583q-.055.049-.471.368t-.889.641q-.473.318-.869.532t-.956.487a11.779,11.779,0,0,1-1.206.511q-.649.235-1.369.437a13.252,13.252,0,0,1-1.393.314q-.673.112-1.525.191l-.853.078v.011H7.614V20.2l-.2-.011q-.2-.011-.336-.022t-1-.123q-.865-.112-1.357-.224t-1.465-.426a14.846,14.846,0,0,1-1.665-.635q-.689-.318-.865-.4t-.389-.206L.12,18.02l0-.007-.007,0L.1,18,.1,18l-.024-.011-.024-.011,0-.007-.007,0-.007,0,0-.007,0-.007-.007,0H0V17.9l.024,0,.024.007.108.011q.108.011.588.034t1.021,0q.54-.022,1.1-.1A13.217,13.217,0,0,0,4.2,17.583a10.332,10.332,0,0,0,1.412-.453q.641-.265.913-.395a9.02,9.02,0,0,0,.821-.475l.552-.348,0-.007.007,0,.007,0,0-.007,0-.007.007,0,.007,0,0-.007.024-.007.024,0,0-.022.007-.022.007,0,0-.007-.192-.011-.372-.022a3.842,3.842,0,0,1-.564-.1,5.682,5.682,0,0,1-.829-.269A6.557,6.557,0,0,1,5.2,14.97a4.256,4.256,0,0,1-.608-.41q-.185-.162-.48-.458A4.593,4.593,0,0,1,3.6,13.49a5.39,5.39,0,0,1-.413-.724l-.2-.408-.012-.034-.012-.034-.007-.022,0-.022.036,0,.036.007.264.034a6.285,6.285,0,0,0,.829.022,6.865,6.865,0,0,0,.781-.045q.216-.034.264-.045l.048-.011.06-.011.06-.011,0-.007.007,0,.007,0,0-.007-.048-.011-.048-.011-.048-.011-.048-.011-.048-.011q-.048-.011-.168-.045T4.3,11.819a5.086,5.086,0,0,1-.841-.415,5.761,5.761,0,0,1-.6-.442,6.541,6.541,0,0,1-.617-.623,4.457,4.457,0,0,1-.6-.886,5.174,5.174,0,0,1-.4-.964,4.894,4.894,0,0,1-.173-.931l-.043-.471.024,0,.024.007.024.011.024.011.024.011.024.011.372.157a4.942,4.942,0,0,0,.925.269q.552.112.661.123l.108.011h.216l0-.007-.007,0-.007,0,0-.007,0-.007-.007,0-.007,0,0-.007-.024-.011-.024-.011,0-.007-.007,0-.007,0,0-.007L3.315,7.6l-.024-.011,0-.007-.207-.144a3.072,3.072,0,0,1-.413-.366Q2.45,6.851,2.234,6.6a3.636,3.636,0,0,1-.384-.527,6.2,6.2,0,0,1-.355-.713A4.815,4.815,0,0,1,1.213,4.5,4.628,4.628,0,0,1,1.1,3.633,5.079,5.079,0,0,1,1.129,2.9a4.485,4.485,0,0,1,.144-.684,5.1,5.1,0,0,1,.312-.807l.2-.426L1.8.953,1.813.919l.007,0,0-.007L1.83.9l.007,0,.007,0,0,.007,0,.007.007,0,.007,0,0,.007,0,.007.007,0L1.9.964,1.91.987l.007,0,0,.007.324.336q.324.336.769.751a4.419,4.419,0,0,0,.492.431.345.345,0,0,1,.12.1,4.807,4.807,0,0,0,.48.4q.408.314,1.069.729t1.465.819a14.813,14.813,0,0,0,1.729.729q.925.325,1.3.426t1.273.258q.9.157,1.357.2t.624.052l.168,0,0-.034-.007-.034-.048-.28a4.926,4.926,0,0,1-.048-.785,4.815,4.815,0,0,1,.084-.931,5.227,5.227,0,0,1,.252-.863,4.463,4.463,0,0,1,.329-.7,6.889,6.889,0,0,1,.428-.6,4.977,4.977,0,0,1,.685-.7A5.062,5.062,0,0,1,15.72.673a6.468,6.468,0,0,1,1-.426,4.912,4.912,0,0,1,.769-.191A2.842,2.842,0,0,0,17.8,0Z"/></g></svg>